<?xml version="1.0" encoding="utf-8"?>
<!-- Generator: Adobe Illustrator 16.0.0, SVG Export Plug-In . SVG Version: 6.00 Build 0)  -->
<!DOCTYPE svg PUBLIC "-//W3C//DTD SVG 1.1//EN" "http://www.w3.org/Graphics/SVG/1.1/DTD/svg11.dtd">
<svg version="1.1" id="Layer_1" xmlns="http://www.w3.org/2000/svg" xmlns:xlink="http://www.w3.org/1999/xlink" x="0px" y="0px"
	 width="208.482px" height="297.848px" viewBox="0 0 208.482 297.848" enable-background="new 0 0 208.482 297.848"
	 xml:space="preserve">
<image overflow="visible" width="2152" height="1130" xlink:href="FB6CEDD8.jpg"  transform="matrix(0.26 0 0 0.2636 -90.1394 -2.441406e-004)">
</image>
<g>
	<circle fill="#1D1D1B" cx="18.17" cy="51.946" r="2.573"/>
	<circle fill="#1D1D1B" cx="44.642" cy="51.946" r="2.574"/>
	<circle fill="#1D1D1B" cx="75.16" cy="51.946" r="2.574"/>
	<circle fill="#1D1D1B" cx="103.654" cy="51.946" r="2.573"/>
	<circle fill="#1D1D1B" cx="135.089" cy="51.946" r="2.574"/>
</g>
<circle fill="#1D1D1B" cx="18.17" cy="202.422" r="2.573"/>
<circle fill="#1D1D1B" cx="54.6" cy="202.422" r="2.574"/>
<circle fill="#1D1D1B" cx="69.675" cy="202.422" r="2.574"/>
<circle fill="#1D1D1B" cx="101.355" cy="202.422" r="2.574"/>
<circle fill="#1D1D1B" cx="129.022" cy="202.422" r="2.574"/>
<g>
	<path fill="#1D1D1B" d="M14.304,61.152c0,0.486-2.542,4.538-2.542,8.135c0,0.973,0.347,1.702,0.594,1.702
		c2.081,0,5.135-4.813,5.135-8.913c0-0.519-0.082-0.729-0.148-0.729c-1.898,0-3.087,2.252-3.153,2.252s-0.148-0.064-0.148-0.098
		c0-0.34,1.602-3.095,2.707-3.095c0.611,0,1.767,0.502,1.767,2.593c0,4.246-3.269,9.075-5.052,9.075c-0.495,0-2.74-0.519-2.74-3.695
		c0-3.176,2.245-8.054,3.005-8.054C14.04,60.326,14.304,60.877,14.304,61.152z"/>
	<path fill="#1D1D1B" d="M20.858,72.302c-0.165,0-0.313-0.194-0.313-0.405c0-1.086,1.767-4.537,1.767-6.061
		c0-0.292-0.182-0.535-0.347-0.535c-0.413,0-1.271,1.297-1.866,2.236c-1.122,3.484-2.972,8.978-3.219,8.978
		c-0.248,0-0.463-0.405-0.463-0.924c0-1.394,3.22-11.927,3.468-11.927c0.445,0,1.057,0.681,1.057,1.07
		c0,0.081-0.231,0.875-0.595,2.009c0.892-1.328,2.212-2.965,3.252-2.965c0.396,0,0.562,0.438,0.562,0.972
		c0,1.491-1.767,5.153-1.767,5.607c0,0.081,0.05,0.129,0.1,0.129c0.545,0,2.542-2.689,2.675-2.689
		C25.183,68.542,21.816,72.302,20.858,72.302z"/>
	<path fill="#1D1D1B" d="M37.746,71.783c0,0.275-1.37,0.275-2.18,0.275h-4.21c-0.066,0-0.099-0.032-0.099-0.113
		c0-0.697,2.79-4.392,4.507-6.579c1.123-1.442,2.08-2.739,2.823-3.695c-0.875,0.065-1.849,0.098-2.229,0.098
		c-0.776,0-2.18-0.146-2.18-0.47c0-0.503,3.731-0.746,5.316-0.746c0.231,0,0.908,0.486,0.908,0.795c0,0.356-1.965,2.771-4.128,5.428
		c-1.337,1.637-2.559,3.177-3.566,4.311c1.305-0.194,3.319-0.291,3.946-0.291C37.118,70.795,37.746,71.621,37.746,71.783z"/>
	<path fill="#1D1D1B" d="M44.399,70.097c-0.958,1.167-1.998,1.993-2.642,1.993c-1.189,0-2.064-1.102-2.064-2.819
		c0-2.269,1.321-5.315,1.783-5.315c0.38,0,0.875,0.535,0.875,1.021c0,0.211-1.519,2.479-1.519,5.267c0,0.989,0.33,1.167,0.825,1.167
		c0.611,0,1.288-0.567,1.915-1.361c-1.271-0.227-1.767-1.215-1.767-2.463c0-1.669,2.146-3.727,3.896-3.727
		c0.628,0,0.941,0.519,0.941,1.231c0,1.345-0.76,2.949-1.7,4.294c0.099,0.032,0.214,0.032,0.33,0.032
		c1.337,0,2.014-1.62,2.278-1.604C47.552,67.927,46.512,69.952,44.399,70.097z M44.234,69.093c0.693-1.118,1.172-2.382,1.172-3.079
		c0-0.647-0.28-0.939-0.727-0.939c-0.858,0-1.667,0.843-1.667,1.848C43.012,67.635,43.49,68.607,44.234,69.093z"/>
	<path fill="#1D1D1B" d="M49.284,72.156c-0.793,0-2.378-1.135-2.378-2.853c0-2.463,2.08-5.559,3.352-5.559
		c1.519,0,2.51,1.248,2.51,1.799c0,1.815-2.526,2.658-4.276,2.771c-0.215,0.632-0.347,1.264-0.347,1.88
		c0,0.972,0.297,1.15,0.743,1.15c1.965,0,4.292-3.549,4.573-3.549C53.461,68.136,51.051,72.156,49.284,72.156z M48.558,68.169
		c1.568-0.129,3.285-0.875,3.285-2.576c0-0.356-0.413-0.681-0.562-0.681C50.506,64.912,49.218,66.435,48.558,68.169z"/>
	<path fill="#1D1D1B" d="M56.448,72.302c-0.858,0-1.783-2.042-2.278-3.452c-0.693,1.848-1.288,3.29-1.42,3.29
		c-0.248,0-0.479-0.405-0.479-0.924c0-1.394,3.252-11.035,3.5-11.035c0.445,0,1.057,0.681,1.057,1.053
		c0,0.146-0.628,2.026-1.403,4.197c0.941-0.924,2.08-1.799,2.724-1.799c0.941,0,1.437,1.086,1.437,1.378
		c0,1.442-1.75,2.868-4.062,3.338c0.562,1.297,1.255,2.738,1.85,2.738c1.387,0,3.318-3.289,3.467-3.289
		C60.84,68.008,58.413,72.302,56.448,72.302z M55.012,67.084c1.701-0.162,3.517-1.508,3.517-2.334c0-0.064-0.049-0.178-0.132-0.178
		C56.944,64.572,55.722,66.094,55.012,67.084z"/>
	<path fill="#1D1D1B" d="M69.457,72.302c-0.148,0-0.298-0.194-0.298-0.405c0-1.086,1.437-4.537,1.437-6.061
		c0-0.292-0.182-0.535-0.363-0.535c-0.462,0-1.354,1.005-2.08,1.896c-0.743,2.317-1.865,5.104-2.84,5.104
		c-0.198,0-0.23-0.162-0.23-0.373c0-0.745,2.063-5.915,2.063-6.692c0-0.26,1.007-1.394,1.618-1.394c0.165,0,0.23,0.178,0.23,0.356
		c0,0.064-0.247,1.069-0.644,2.35c1.073-1.296,2.543-2.771,3.533-2.771c0.396,0,0.562,0.438,0.562,0.972
		c0,1.491-1.437,5.153-1.437,5.607c0,0.081,0.033,0.129,0.082,0.129c0.562,0,2.543-2.689,2.691-2.689
		C73.782,68.542,70.414,72.302,69.457,72.302z"/>
	<path fill="#1D1D1B" d="M78.603,71.945c-0.215,0-1.535-0.681-1.535-2.269c0-0.892,0.561-2.577,1.105-3.905l-0.065-0.081
		c-0.215-0.275-0.512-0.616-0.908-0.616c-1.337,0-2.89,2.398-2.89,4.635c0,1.183,0.528,1.88,0.793,1.88
		c0.727,0,1.271-0.875,1.437-0.875c0.017,0,0.049,0.032,0.049,0.048c0,0.13-0.858,1.232-1.485,1.232
		c-0.43,0-1.998-1.103-1.998-3.192c0-2.901,1.898-4.927,3.088-4.927c0.94,0,1.767,0.826,2.179,1.459
		c0.347-0.827,0.661-1.427,0.743-1.427c0.313,0,1.073,0.584,1.073,1.005c0,0.113-1.898,3.824-1.898,5.802
		c0,0.275,0.033,0.389,0.28,0.389c0.975,0,2.675-3.306,2.823-3.306C81.426,67.959,79.461,71.945,78.603,71.945z"/>
	<path fill="#1D1D1B" d="M86.279,71.945c-0.215,0-1.535-0.681-1.535-2.269c0-0.892,0.561-2.577,1.105-3.905l-0.065-0.081
		c-0.215-0.275-0.512-0.616-0.908-0.616c-1.337,0-2.89,2.398-2.89,4.635c0,1.183,0.528,1.88,0.793,1.88
		c0.727,0,1.271-0.875,1.437-0.875c0.017,0,0.049,0.032,0.049,0.048c0,0.13-0.858,1.232-1.485,1.232
		c-0.43,0-1.998-1.103-1.998-3.192c0-2.901,1.898-4.927,3.088-4.927c0.94,0,1.767,0.826,2.179,1.459
		c0.347-0.827,0.661-1.427,0.743-1.427c0.313,0,1.073,0.584,1.073,1.005c0,0.113-1.898,3.824-1.898,5.802
		c0,0.275,0.033,0.389,0.28,0.389c0.975,0,2.675-3.306,2.823-3.306C89.102,67.959,87.137,71.945,86.279,71.945z"/>
	<path fill="#1D1D1B" d="M90.654,72.383c-0.248,0-0.413-0.146-0.413-0.405c0-0.892,1.073-2.771,1.073-3.694
		c0-0.633-0.743-1.054-1.387-1.508c-0.562,0.908-1.09,1.637-1.205,1.637c-0.017,0-0.033-0.016-0.033-0.064
		c0-0.098,0.512-0.875,1.007-1.718c-0.413-0.308-0.76-0.632-0.76-1.037c0-0.973,1.553-2.414,2.015-2.414
		c0.264,0,0.363,0.259,0.363,0.519c0,0.372-0.28,1.069-0.677,1.814c0.743,0.405,2.03,0.648,2.03,1.653
		c0,1.328-1.105,3.694-1.105,4.034c0,0.114,0.032,0.146,0.099,0.146c0.165,0,2.575-3.549,2.823-3.549
		C94.484,68.121,91.479,72.383,90.654,72.383z M90.406,65.349c0.198-0.373,0.313-0.664,0.313-0.826c0-0.113,0-0.405-0.165-0.405
		c-0.148,0-0.396,0.454-0.396,0.762C90.157,65.074,90.257,65.219,90.406,65.349z"/>
	<path fill="#1D1D1B" d="M101.978,72.156c-0.793,0-2.378-1.135-2.378-2.853c0-2.463,2.08-5.559,3.352-5.559
		c1.519,0,2.51,1.248,2.51,1.799c0,1.815-2.526,2.658-4.276,2.771c-0.215,0.632-0.347,1.264-0.347,1.88
		c0,0.972,0.297,1.15,0.743,1.15c1.965,0,4.292-3.549,4.573-3.549C106.155,68.136,103.744,72.156,101.978,72.156z M101.251,68.169
		c1.568-0.129,3.285-0.875,3.285-2.576c0-0.356-0.413-0.681-0.562-0.681C103.199,64.912,101.911,66.435,101.251,68.169z"/>
	<path fill="#1D1D1B" d="M107.822,72.156c-0.793,0-2.378-1.135-2.378-2.853c0-2.463,2.08-5.559,3.352-5.559
		c1.519,0,2.51,1.248,2.51,1.799c0,1.815-2.526,2.658-4.276,2.771c-0.215,0.632-0.347,1.264-0.347,1.88
		c0,0.972,0.297,1.15,0.743,1.15c1.965,0,4.292-3.549,4.573-3.549C111.998,68.136,109.588,72.156,107.822,72.156z M107.095,68.169
		c1.568-0.129,3.285-0.875,3.285-2.576c0-0.356-0.413-0.681-0.562-0.681C109.043,64.912,107.755,66.435,107.095,68.169z"/>
	<path fill="#1D1D1B" d="M114.689,72.302c-0.148,0-0.298-0.194-0.298-0.405c0-1.086,1.437-4.537,1.437-6.061
		c0-0.292-0.182-0.535-0.363-0.535c-0.462,0-1.354,1.005-2.08,1.896c-0.743,2.317-1.865,5.104-2.84,5.104
		c-0.198,0-0.23-0.162-0.23-0.373c0-0.745,2.063-5.915,2.063-6.692c0-0.26,1.007-1.394,1.618-1.394c0.165,0,0.23,0.178,0.23,0.356
		c0,0.064-0.247,1.069-0.644,2.35c1.073-1.296,2.543-2.771,3.533-2.771c0.396,0,0.562,0.438,0.562,0.972
		c0,1.491-1.437,5.153-1.437,5.607c0,0.081,0.033,0.129,0.082,0.129c0.562,0,2.543-2.689,2.691-2.689
		C119.014,68.542,115.646,72.302,114.689,72.302z"/>
	<path fill="#1D1D1B" d="M128.819,70.097c-0.957,1.167-1.997,1.993-2.642,1.993c-0.099,0-1.865-0.567-1.865-2.674
		c0-3.144,2.361-9.042,2.625-9.042c0.33,0,1.073,0.567,1.073,1.053c0,0.162-2.608,5.785-2.608,8.881
		c0,0.453,0.065,0.615,0.148,0.615c0.793,0,1.552-0.372,2.212-0.923c-1.105-0.309-1.535-1.232-1.535-2.415
		c0-1.669,2.146-3.727,3.896-3.727c0.627,0,0.941,0.519,0.941,1.231c0,1.345-0.76,2.949-1.701,4.294
		c0.1,0.032,0.215,0.032,0.33,0.032c1.338,0,2.015-1.62,2.279-1.604C131.973,67.927,130.932,69.952,128.819,70.097z M127.432,66.922
		c0,0.713,0.463,1.652,1.205,2.155c0.727-0.973,1.189-2.14,1.189-3.063c0-0.647-0.281-0.939-0.727-0.939
		C128.241,65.074,127.432,65.917,127.432,66.922z"/>
	<path fill="#1D1D1B" d="M136.149,70.097c-0.958,1.167-1.998,1.993-2.642,1.993c-1.189,0-2.064-1.102-2.064-2.819
		c0-2.269,1.321-5.315,1.783-5.315c0.38,0,0.875,0.535,0.875,1.021c0,0.211-1.519,2.479-1.519,5.267c0,0.989,0.33,1.167,0.825,1.167
		c0.611,0,1.288-0.567,1.915-1.361c-1.271-0.227-1.767-1.215-1.767-2.463c0-1.669,2.146-3.727,3.896-3.727
		c0.628,0,0.941,0.519,0.941,1.231c0,1.345-0.76,2.949-1.7,4.294c0.099,0.032,0.214,0.032,0.33,0.032
		c1.337,0,2.014-1.62,2.278-1.604C139.302,67.927,138.262,69.952,136.149,70.097z M135.984,69.093
		c0.693-1.118,1.172-2.382,1.172-3.079c0-0.647-0.28-0.939-0.727-0.939c-0.858,0-1.667,0.843-1.667,1.848
		C134.762,67.635,135.24,68.607,135.984,69.093z"/>
	<path fill="#1D1D1B" d="M141.034,72.156c-0.793,0-2.378-1.135-2.378-2.853c0-2.463,2.08-5.559,3.352-5.559
		c1.519,0,2.51,1.248,2.51,1.799c0,1.815-2.526,2.658-4.276,2.771c-0.215,0.632-0.347,1.264-0.347,1.88
		c0,0.972,0.297,1.15,0.743,1.15c1.965,0,4.292-3.549,4.573-3.549C145.211,68.136,142.801,72.156,141.034,72.156z M140.308,68.169
		c1.568-0.129,3.285-0.875,3.285-2.576c0-0.356-0.413-0.681-0.562-0.681C142.256,64.912,140.968,66.435,140.308,68.169z"/>
	<path fill="#1D1D1B" d="M148.198,72.302c-0.858,0-1.783-2.042-2.278-3.452c-0.693,1.848-1.288,3.29-1.42,3.29
		c-0.248,0-0.479-0.405-0.479-0.924c0-1.394,3.252-11.035,3.5-11.035c0.445,0,1.057,0.681,1.057,1.053
		c0,0.146-0.628,2.026-1.403,4.197c0.941-0.924,2.08-1.799,2.724-1.799c0.941,0,1.437,1.086,1.437,1.378
		c0,1.442-1.75,2.868-4.062,3.338c0.562,1.297,1.255,2.738,1.85,2.738c1.387,0,3.318-3.289,3.467-3.289
		C152.59,68.008,150.163,72.302,148.198,72.302z M146.762,67.084c1.701-0.162,3.517-1.508,3.517-2.334
		c0-0.064-0.049-0.178-0.132-0.178C148.694,64.572,147.472,66.094,146.762,67.084z"/>
</g>
<g>
	<path fill="#1D1D1B" d="M18.877,138.589c-0.049,0.437-0.924,0.907-1.617,0.925c-0.446,0.018-1.602,0.018-2.477,0.018
		c-0.265,0.872-0.81,2.529-1.42,4.272c1.073-0.139,2.377-0.174,2.955-0.174h0.28c0.148,0.018,0.265,0.14,0.265,0.296
		c-0.05,0.454-0.826,0.925-1.42,0.96c-0.363,0.018-1.271,0.034-1.998,0.034h-0.479c-0.611,1.779-1.238,3.488-1.651,4.465
		c1.008-0.209,2.658-0.261,3.583-0.261c0.33,0,0.578,0,0.66,0.017c0.182,0.018,0.313,0.14,0.313,0.297
		c-0.049,0.453-0.924,0.925-1.617,0.941h-0.363c-0.843,0-2.345-0.034-2.741-0.034c-0.38,0-0.727-0.297-0.727-0.732
		c0-1.116,1.833-7.273,2.84-10.256c-0.198-0.104-0.347-0.227-0.347-0.418c0.017-0.14,0.248-0.262,0.628-0.35
		c0.198-0.54,0.33-0.854,0.363-0.854c0.297,0,0.677,0.332,0.892,0.663c1.023-0.087,2.229-0.122,3.004-0.122
		c0.38,0,0.678,0,0.76,0.018C18.745,138.31,18.877,138.45,18.877,138.589z"/>
	<path fill="#1D1D1B" d="M19.801,150.623c-0.793,0-2.378-1.221-2.378-3.069c0-2.65,2.08-5.982,3.352-5.982
		c1.519,0,2.51,1.344,2.51,1.937c0,1.953-2.526,2.86-4.276,2.982c-0.215,0.68-0.347,1.36-0.347,2.022
		c0,1.047,0.297,1.238,0.743,1.238c1.965,0,4.292-3.819,4.573-3.819C23.978,146.298,21.568,150.623,19.801,150.623z M19.074,146.333
		c1.568-0.14,3.285-0.941,3.285-2.773c0-0.384-0.413-0.732-0.562-0.732C21.023,142.827,19.735,144.467,19.074,146.333z"/>
	<path fill="#1D1D1B" d="M26.668,150.78c-0.148,0-0.298-0.209-0.298-0.436c0-1.169,1.437-4.884,1.437-6.523
		c0-0.313-0.182-0.575-0.363-0.575c-0.462,0-1.354,1.081-2.08,2.04c-0.743,2.494-1.865,5.494-2.84,5.494
		c-0.198,0-0.23-0.174-0.23-0.401c0-0.802,2.063-6.365,2.063-7.203c0-0.278,1.007-1.499,1.618-1.499c0.165,0,0.23,0.191,0.23,0.384
		c0,0.069-0.247,1.15-0.644,2.528c1.073-1.396,2.543-2.982,3.533-2.982c0.396,0,0.562,0.471,0.562,1.047
		c0,1.604-1.437,5.546-1.437,6.034c0,0.087,0.033,0.14,0.082,0.14c0.562,0,2.543-2.896,2.691-2.896
		C30.993,146.734,27.625,150.78,26.668,150.78z"/>
	<path fill="#1D1D1B" d="M41.312,148.024c-0.496,0-0.958-0.261-1.321-0.697c-1.305,1.762-2.675,3.296-2.938,3.296
		c-0.265,0-0.925-0.645-0.925-1.203c0-1.238,0.347-4.953,0.347-7.255c0-0.07,0.066-0.175,0.198-0.175
		c0.495,0,1.139,0.941,1.139,1.169c0,0.227-0.148,5.127-0.33,6.4c0,0,1.123-1.256,2.163-2.721c-0.28-0.523-0.462-1.169-0.462-1.797
		c0-1.482,1.238-3.313,2.542-3.313c0.578,0,0.826,0.349,0.826,0.837c0,0.733-0.727,2.094-1.651,3.488
		c0.297,0.506,0.727,0.854,1.255,0.854c0.825,0,1.403-1.116,1.519-1.116C43.689,146.176,42.484,148.024,41.312,148.024z
		 M40.602,145.391c0.495-0.838,0.842-1.622,0.842-2.216v-0.069c-0.017-0.331-0.116-0.541-0.313-0.541
		c-0.248,0-0.743,0.594-0.743,1.588C40.387,144.553,40.452,144.99,40.602,145.391z"/>
	<path fill="#1D1D1B" d="M45.206,150.867c-0.248,0-0.413-0.156-0.413-0.436c0-0.959,1.073-2.982,1.073-3.977
		c0-0.68-0.743-1.134-1.387-1.622c-0.562,0.977-1.09,1.762-1.205,1.762c-0.017,0-0.033-0.018-0.033-0.069
		c0-0.105,0.512-0.942,1.007-1.85c-0.413-0.331-0.76-0.68-0.76-1.116c0-1.046,1.553-2.599,2.015-2.599
		c0.264,0,0.363,0.279,0.363,0.559c0,0.401-0.28,1.151-0.677,1.953c0.743,0.437,2.03,0.697,2.03,1.779
		c0,1.43-1.105,3.977-1.105,4.343c0,0.122,0.032,0.156,0.099,0.156c0.165,0,2.575-3.819,2.823-3.819
		C49.036,146.28,46.031,150.867,45.206,150.867z M44.958,143.299c0.198-0.401,0.313-0.716,0.313-0.89c0-0.122,0-0.437-0.165-0.437
		c-0.148,0-0.396,0.488-0.396,0.82C44.71,143.002,44.81,143.159,44.958,143.299z"/>
	<path fill="#1D1D1B" d="M53.197,148.408c-0.958,1.256-1.998,2.146-2.642,2.146c-1.189,0-2.064-1.186-2.064-3.035
		c0-2.441,1.321-5.72,1.783-5.72c0.38,0,0.875,0.575,0.875,1.099c0,0.227-1.519,2.668-1.519,5.668c0,1.063,0.33,1.256,0.825,1.256
		c0.611,0,1.288-0.61,1.915-1.465c-1.271-0.244-1.767-1.309-1.767-2.651c0-1.796,2.146-4.012,3.896-4.012
		c0.628,0,0.941,0.559,0.941,1.326c0,1.447-0.76,3.174-1.7,4.621c0.099,0.035,0.214,0.035,0.33,0.035
		c1.337,0,2.014-1.744,2.278-1.727C56.35,146.071,55.31,148.252,53.197,148.408z M53.031,147.327
		c0.693-1.203,1.172-2.563,1.172-3.313c0-0.698-0.28-1.012-0.727-1.012c-0.858,0-1.667,0.907-1.667,1.988
		C51.81,145.758,52.288,146.803,53.031,147.327z"/>
	<path fill="#1D1D1B" d="M60.707,150.955c-1.024,0-1.486-0.89-1.585-1.866c-0.645,0.89-1.486,1.796-2.18,1.796
		c-1.09,0-1.618-1.012-1.618-2.197c0-0.384,0.05-0.785,0.165-1.169c0.892-3.069,1.75-6.034,1.883-6.034
		c0.445,0,1.057,0.732,1.057,1.151c0,0.174-0.892,3.262-1.85,6.331c-0.099,0.296-0.132,0.523-0.132,0.662
		c0,0.157,0.033,0.228,0.115,0.228c0.76,0,1.915-1.466,2.708-2.372c0.892-3.053,1.65-5.721,1.783-5.721
		c0.445,0,1.057,0.75,1.057,1.151c0,0.156-0.693,2.441-1.503,5.145l-0.264,0.907c-0.083,0.262-0.116,0.471-0.116,0.61
		c0,0.157,0.05,0.244,0.149,0.244c1.105,0,3.219-3.89,3.367-3.89C63.744,146.124,61.483,150.955,60.707,150.955z"/>
	<path fill="#1D1D1B" d="M72.231,148.443c-0.479,0-0.628-0.715-0.677-1.447c-0.908,1.849-1.883,3.627-2.146,3.627
		c-0.413,0-1.568-1.813-2.18-3.819c-1.238,1.971-2.74,3.819-3.038,3.819c-0.264,0-0.924-0.645-0.924-1.203
		c0-1.238,0.347-4.953,0.347-7.255c0-0.07,0.065-0.175,0.215-0.175c0.479,0,1.122,0.941,1.122,1.169c0,0.227-0.132,5.127-0.33,6.4
		c0,0,1.37-1.831,2.378-3.646c-0.1-0.471-0.166-0.959-0.166-1.412c0-1.727,1.09-2.459,1.536-2.459c0.429,0,0.644,0.366,0.644,0.784
		c0,0.628-0.445,1.657-1.057,2.756c0.248,1.727,0.71,3.819,0.842,3.819c0.215,0,3.303-7.359,3.616-7.359
		c0.297,0,0.99,0.697,0.99,0.994c0,0.052-0.677,1.552-0.677,1.569c-0.611,1.308-0.76,2.39-0.76,3c0,0.331,0.05,0.506,0.083,0.506
		c0.479,0,1.8-2.181,1.915-2.181C73.981,146.124,72.841,148.443,72.231,148.443z M67.806,144.17c0.148-0.4,0.231-0.767,0.231-1.063
		c0-0.053-0.033-0.104-0.066-0.104c-0.099,0-0.165,0.453-0.165,0.941V144.17z"/>
	<path fill="#1D1D1B" d="M84.232,148.024c-0.496,0-0.958-0.261-1.321-0.697c-1.305,1.762-2.675,3.296-2.938,3.296
		c-0.265,0-0.925-0.645-0.925-1.203c0-1.238,0.347-4.953,0.347-7.255c0-0.07,0.066-0.175,0.198-0.175
		c0.495,0,1.139,0.941,1.139,1.169c0,0.227-0.148,5.127-0.33,6.4c0,0,1.123-1.256,2.163-2.721c-0.28-0.523-0.462-1.169-0.462-1.797
		c0-1.482,1.238-3.313,2.542-3.313c0.578,0,0.826,0.349,0.826,0.837c0,0.733-0.727,2.094-1.651,3.488
		c0.297,0.506,0.727,0.854,1.255,0.854c0.825,0,1.403-1.116,1.519-1.116C86.609,146.176,85.404,148.024,84.232,148.024z
		 M83.522,145.391c0.495-0.838,0.842-1.622,0.842-2.216v-0.069c-0.017-0.331-0.116-0.541-0.313-0.541
		c-0.248,0-0.743,0.594-0.743,1.588C83.307,144.553,83.372,144.99,83.522,145.391z"/>
	<path fill="#1D1D1B" d="M88.127,150.867c-0.248,0-0.413-0.156-0.413-0.436c0-0.959,1.073-2.982,1.073-3.977
		c0-0.68-0.743-1.134-1.387-1.622c-0.562,0.977-1.09,1.762-1.205,1.762c-0.017,0-0.033-0.018-0.033-0.069
		c0-0.105,0.512-0.942,1.007-1.85c-0.413-0.331-0.76-0.68-0.76-1.116c0-1.046,1.553-2.599,2.015-2.599
		c0.265,0,0.363,0.279,0.363,0.559c0,0.401-0.28,1.151-0.677,1.953c0.743,0.437,2.03,0.697,2.03,1.779
		c0,1.43-1.105,3.977-1.105,4.343c0,0.122,0.032,0.156,0.099,0.156c0.165,0,2.575-3.819,2.823-3.819
		C91.957,146.28,88.952,150.867,88.127,150.867z M87.879,143.299c0.198-0.401,0.313-0.716,0.313-0.89c0-0.122,0-0.437-0.165-0.437
		c-0.148,0-0.396,0.488-0.396,0.82C87.632,143.002,87.731,143.159,87.879,143.299z"/>
	<path fill="#1D1D1B" d="M96.777,150.396c-0.215,0-1.535-0.732-1.535-2.441c0-0.959,0.561-2.773,1.105-4.203l-0.065-0.087
		c-0.215-0.297-0.512-0.663-0.908-0.663c-1.337,0-2.89,2.581-2.89,4.988c0,1.272,0.528,2.022,0.793,2.022
		c0.727,0,1.271-0.941,1.437-0.941c0.017,0,0.049,0.035,0.049,0.053c0,0.139-0.858,1.325-1.485,1.325
		c-0.43,0-1.998-1.187-1.998-3.436c0-3.122,1.898-5.303,3.088-5.303c0.94,0,1.767,0.89,2.179,1.57
		c0.347-0.89,0.661-1.535,0.743-1.535c0.313,0,1.073,0.628,1.073,1.081c0,0.122-1.898,4.116-1.898,6.244
		c0,0.297,0.033,0.419,0.28,0.419c0.975,0,2.675-3.559,2.823-3.559C99.6,146.106,97.635,150.396,96.777,150.396z"/>
	<path fill="#1D1D1B" d="M104.453,150.396c-0.215,0-1.535-0.732-1.535-2.441c0-0.959,0.561-2.773,1.105-4.203l-0.065-0.087
		c-0.215-0.297-0.512-0.663-0.908-0.663c-1.338,0-2.89,2.581-2.89,4.988c0,1.272,0.528,2.022,0.793,2.022
		c0.727,0,1.271-0.941,1.437-0.941c0.017,0,0.049,0.035,0.049,0.053c0,0.139-0.858,1.325-1.485,1.325
		c-0.43,0-1.998-1.187-1.998-3.436c0-3.122,1.898-5.303,3.088-5.303c0.94,0,1.767,0.89,2.179,1.57
		c0.347-0.89,0.66-1.535,0.743-1.535c0.313,0,1.073,0.628,1.073,1.081c0,0.122-1.898,4.116-1.898,6.244
		c0,0.297,0.033,0.419,0.28,0.419c0.975,0,2.675-3.559,2.823-3.559C107.277,146.106,105.312,150.396,104.453,150.396z"/>
	<path fill="#1D1D1B" d="M112.361,149.089c-0.892,3.296-1.883,6.68-2.163,6.68c-0.76,0-2.642-0.941-2.642-2.599
		c0-1.134,1.635-2.285,3.005-3.174c0.528-2.006,1.122-4.309,1.585-6c-0.265-0.122-0.611-0.994-1.222-0.994
		c-1.338,0-2.89,2.581-2.89,4.988c0,1.272,0.528,2.022,0.776,2.022c0.743,0,1.287-0.941,1.453-0.941
		c0.016,0,0.032,0.035,0.032,0.053c0,0.139-0.842,1.325-1.485,1.325c-0.413,0-1.981-1.187-1.981-3.436
		c0-3.122,1.882-5.303,3.088-5.303c1.105,0,2.047,1.221,2.344,1.884c0.33-1.221,0.595-2.04,0.693-2.04
		c0.545,0,0.991,0.906,0.991,1.325c0,0.104-0.678,2.843-1.47,5.772c1.948-1.534,2.51-2.755,2.608-2.703
		C115.084,146.49,113.946,147.815,112.361,149.089z M110.412,150.518c-1.52,1.116-2.477,2.006-2.477,2.948
		c0,0.366,0.445,1.011,1.188,1.011C109.306,154.477,109.818,152.733,110.412,150.518z"/>
	<path fill="#1D1D1B" d="M118.403,139.269c0.247,0,1.42,0.959,1.42,1.518c0,0.174-0.132,0.279-0.231,0.279
		c-0.677,0-1.32-0.018-1.915-0.035c-0.793,2.563-1.981,6.593-1.981,8.04c0,0.297,0.033,0.419,0.281,0.419
		c0.858,0,2.855-3.628,2.855-3.541c0,0.157-1.964,4.447-2.839,4.447c-0.248,0-1.52-0.018-1.52-1.691
		c0-1.553,0.925-5.093,1.733-7.727c-1.684-0.104-2.724-0.313-2.724-0.575c0-0.157,1.75-0.575,3.17-0.854
		c0.363-1.099,0.644-1.831,0.71-1.831c0.247,0,1.007,0.418,1.007,1.063c0,0.018-0.05,0.209-0.148,0.488H118.403z"/>
	<path fill="#1D1D1B" d="M129.825,150.396c-0.247,0-1.519-0.018-1.519-1.691c0-1.099,0.462-3.104,1.023-5.075
		c-0.231-0.297-0.495-0.628-0.875-0.628c-1.337,0-2.89,2.581-2.89,4.988c0,1.272,0.528,2.022,0.776,2.022
		c0.743,0,1.288-0.941,1.453-0.941c0.017,0,0.032,0.035,0.032,0.053c0,0.139-0.842,1.325-1.485,1.325
		c-0.413,0-1.981-1.187-1.981-3.436c0-3.122,1.883-5.303,3.088-5.303c0.842,0,1.602,0.716,2.03,1.36
		c0.743-2.546,1.568-4.865,1.685-4.865c0.247,0,1.023,0.418,1.023,1.063c0,0.14-2.642,7.622-2.642,9.802
		c0,0.297,0.033,0.419,0.264,0.419c0.991,0,2.691-3.559,2.84-3.559C132.682,146.106,130.717,150.396,129.825,150.396z"/>
	<path fill="#1D1D1B" d="M134.497,150.623c-0.793,0-2.378-1.221-2.378-3.069c0-2.65,2.08-5.982,3.352-5.982
		c1.519,0,2.51,1.344,2.51,1.937c0,1.953-2.526,2.86-4.276,2.982c-0.215,0.68-0.347,1.36-0.347,2.022
		c0,1.047,0.297,1.238,0.743,1.238c1.965,0,4.292-3.819,4.573-3.819C138.674,146.298,136.264,150.623,134.497,150.623z
		 M133.771,146.333c1.568-0.14,3.285-0.941,3.285-2.773c0-0.384-0.413-0.732-0.562-0.732
		C135.719,142.827,134.431,144.467,133.771,146.333z"/>
	<path fill="#1D1D1B" d="M152.772,148.443c-0.479,0-0.628-0.715-0.677-1.447c-0.908,1.849-1.883,3.627-2.146,3.627
		c-0.413,0-1.568-1.813-2.18-3.819c-1.238,1.971-2.74,3.819-3.038,3.819c-0.264,0-0.924-0.645-0.924-1.203
		c0-1.238,0.347-4.953,0.347-7.255c0-0.07,0.065-0.175,0.215-0.175c0.479,0,1.122,0.941,1.122,1.169c0,0.227-0.132,5.127-0.33,6.4
		c0,0,1.37-1.831,2.378-3.646c-0.1-0.471-0.166-0.959-0.166-1.412c0-1.727,1.09-2.459,1.536-2.459c0.429,0,0.644,0.366,0.644,0.784
		c0,0.628-0.445,1.657-1.057,2.756c0.248,1.727,0.71,3.819,0.842,3.819c0.215,0,3.303-7.359,3.616-7.359
		c0.297,0,0.99,0.697,0.99,0.994c0,0.052-0.677,1.552-0.677,1.569c-0.611,1.308-0.76,2.39-0.76,3c0,0.331,0.05,0.506,0.083,0.506
		c0.479,0,1.8-2.181,1.915-2.181C154.522,146.124,153.382,148.443,152.772,148.443z M148.347,144.17
		c0.148-0.4,0.231-0.767,0.231-1.063c0-0.053-0.033-0.104-0.066-0.104c-0.099,0-0.165,0.453-0.165,0.941V144.17z"/>
	<path fill="#1D1D1B" d="M156.172,150.623c-0.793,0-2.378-1.221-2.378-3.069c0-2.65,2.08-5.982,3.352-5.982
		c1.519,0,2.51,1.344,2.51,1.937c0,1.953-2.526,2.86-4.276,2.982c-0.215,0.68-0.347,1.36-0.347,2.022
		c0,1.047,0.297,1.238,0.743,1.238c1.965,0,4.292-3.819,4.573-3.819C160.349,146.298,157.939,150.623,156.172,150.623z
		 M155.446,146.333c1.568-0.14,3.285-0.941,3.285-2.773c0-0.384-0.413-0.732-0.562-0.732
		C157.394,142.827,156.106,144.467,155.446,146.333z"/>
	<path fill="#1D1D1B" d="M165.351,149.089c-0.892,3.296-1.883,6.68-2.163,6.68c-0.76,0-2.642-0.941-2.642-2.599
		c0-1.134,1.635-2.285,3.005-3.174c0.528-2.006,1.122-4.309,1.585-6c-0.265-0.122-0.611-0.994-1.222-0.994
		c-1.338,0-2.89,2.581-2.89,4.988c0,1.272,0.528,2.022,0.776,2.022c0.743,0,1.287-0.941,1.453-0.941
		c0.016,0,0.032,0.035,0.032,0.053c0,0.139-0.842,1.325-1.485,1.325c-0.413,0-1.981-1.187-1.981-3.436
		c0-3.122,1.882-5.303,3.088-5.303c1.105,0,2.047,1.221,2.344,1.884c0.33-1.221,0.595-2.04,0.693-2.04
		c0.545,0,0.991,0.906,0.991,1.325c0,0.104-0.678,2.843-1.47,5.772c1.948-1.534,2.51-2.755,2.608-2.703
		C168.074,146.49,166.936,147.815,165.351,149.089z M163.403,150.518c-1.52,1.116-2.477,2.006-2.477,2.948
		c0,0.366,0.445,1.011,1.188,1.011C162.296,154.477,162.808,152.733,163.403,150.518z"/>
	<path fill="#1D1D1B" d="M175.635,150.623c-0.793,0-2.378-1.221-2.378-3.069c0-2.65,2.08-5.982,3.352-5.982
		c1.519,0,2.51,1.344,2.51,1.937c0,1.953-2.526,2.86-4.276,2.982c-0.215,0.68-0.347,1.36-0.347,2.022
		c0,1.047,0.297,1.238,0.743,1.238c1.965,0,4.292-3.819,4.573-3.819C179.812,146.298,177.402,150.623,175.635,150.623z
		 M174.908,146.333c1.568-0.14,3.285-0.941,3.285-2.773c0-0.384-0.413-0.732-0.562-0.732
		C176.857,142.827,175.569,144.467,174.908,146.333z"/>
	<path fill="#1D1D1B" d="M182.502,150.78c-0.148,0-0.298-0.209-0.298-0.436c0-1.169,1.437-4.884,1.437-6.523
		c0-0.313-0.182-0.575-0.363-0.575c-0.462,0-1.354,1.081-2.08,2.04c-0.743,2.494-1.865,5.494-2.84,5.494
		c-0.198,0-0.23-0.174-0.23-0.401c0-0.802,2.063-6.365,2.063-7.203c0-0.278,1.007-1.499,1.618-1.499c0.165,0,0.23,0.191,0.23,0.384
		c0,0.069-0.247,1.15-0.644,2.528c1.073-1.396,2.543-2.982,3.533-2.982c0.396,0,0.562,0.471,0.562,1.047
		c0,1.604-1.437,5.546-1.437,6.034c0,0.087,0.033,0.14,0.082,0.14c0.562,0,2.543-2.896,2.691-2.896
		C186.827,146.734,183.459,150.78,182.502,150.78z"/>
	<path fill="#1D1D1B" d="M193.198,150.396c-0.215,0-1.535-0.732-1.535-2.441s2.097-6.662,2.312-6.662
		c0.313,0,1.072,0.645,1.072,1.099c0,0.122-2.146,4.552-2.146,6.68c0,0.297,0.032,0.419,0.264,0.419c0.99,0,2.691-3.559,2.84-3.559
		C196.022,146.106,194.073,150.396,193.198,150.396z M196.319,139.078c0,0,0.132,0.209,0.132,0.366c0,0.122-0.082,0.191-0.197,0.191
		c-0.628,0-1.437-0.697-1.437-1.396c0-0.349,0.545-0.506,0.842-0.506c0.562,0,1.14,0.768,1.14,0.994
		C196.798,138.956,196.319,139.078,196.319,139.078z"/>
	<path fill="#1D1D1B" d="M199.109,150.78c-0.858,0-1.783-2.197-2.278-3.715c-0.693,1.988-1.288,3.541-1.42,3.541
		c-0.248,0-0.479-0.437-0.479-0.994c0-1.5,3.252-11.878,3.5-11.878c0.445,0,1.057,0.732,1.057,1.134
		c0,0.157-0.628,2.181-1.403,4.518c0.941-0.994,2.08-1.937,2.724-1.937c0.941,0,1.437,1.169,1.437,1.482
		c0,1.553-1.75,3.088-4.062,3.594c0.562,1.395,1.255,2.947,1.85,2.947c1.387,0,3.318-3.541,3.467-3.541
		C203.5,146.158,201.073,150.78,199.109,150.78z M197.672,145.164c1.701-0.174,3.517-1.621,3.517-2.511
		c0-0.07-0.049-0.192-0.132-0.192C199.604,142.461,198.382,144.1,197.672,145.164z"/>
</g>
<g>
	<path fill="#1D1D1B" d="M19.29,218.643c0,0.154-1.023,1.145-3.285,3.278c-0.793,0.752-1.536,1.4-2.146,1.861
		c0.792,1.656,2.03,4.576,2.03,5.037c0,0.308-0.049,0.666-0.214,0.666c-0.496,0-2.229-3.073-3.088-4.713
		c-0.875,2.544-1.733,4.85-1.898,4.85c-0.265,0-0.479-0.427-0.479-0.974c0-1.468,3.252-11.628,3.5-11.628
		c0.445,0,1.057,0.718,1.057,1.11c0,0.153-0.661,2.186-1.437,4.508c0.61-0.684,1.354-1.417,1.981-2.066
		c1.403-1.451,2.773-3.039,2.889-3.039C18.614,217.534,19.29,218.132,19.29,218.643z"/>
	<path fill="#1D1D1B" d="M23.516,227.471c-0.958,1.229-1.998,2.1-2.642,2.1c-1.189,0-2.064-1.161-2.064-2.971
		c0-2.391,1.321-5.601,1.783-5.601c0.38,0,0.875,0.563,0.875,1.076c0,0.222-1.519,2.612-1.519,5.549c0,1.042,0.33,1.229,0.825,1.229
		c0.611,0,1.288-0.598,1.915-1.435c-1.271-0.238-1.767-1.28-1.767-2.595c0-1.759,2.146-3.928,3.896-3.928
		c0.628,0,0.941,0.547,0.941,1.298c0,1.417-0.76,3.107-1.7,4.525c0.099,0.033,0.214,0.033,0.33,0.033
		c1.337,0,2.014-1.707,2.278-1.689C26.669,225.183,25.629,227.317,23.516,227.471z M23.351,226.413
		c0.693-1.179,1.172-2.51,1.172-3.244c0-0.684-0.28-0.99-0.727-0.99c-0.858,0-1.667,0.888-1.667,1.946
		C22.129,224.876,22.608,225.9,23.351,226.413z"/>
	<path fill="#1D1D1B" d="M30.845,227.471c-0.958,1.229-1.998,2.1-2.642,2.1c-1.189,0-2.064-1.161-2.064-2.971
		c0-2.391,1.321-5.601,1.783-5.601c0.38,0,0.875,0.563,0.875,1.076c0,0.222-1.519,2.612-1.519,5.549c0,1.042,0.33,1.229,0.825,1.229
		c0.611,0,1.288-0.598,1.915-1.435c-1.271-0.238-1.767-1.28-1.767-2.595c0-1.759,2.146-3.928,3.896-3.928
		c0.628,0,0.941,0.547,0.941,1.298c0,1.417-0.76,3.107-1.7,4.525c0.099,0.033,0.214,0.033,0.33,0.033
		c1.337,0,2.014-1.707,2.278-1.689C33.998,225.183,32.958,227.317,30.845,227.471z M30.68,226.413
		c0.693-1.179,1.172-2.51,1.172-3.244c0-0.684-0.28-0.99-0.727-0.99c-0.858,0-1.667,0.888-1.667,1.946
		C29.458,224.876,29.937,225.9,30.68,226.413z"/>
	<path fill="#1D1D1B" d="M36.177,229.794c-0.165,0-0.313-0.205-0.313-0.427c0-1.145,1.767-4.781,1.767-6.387
		c0-0.307-0.182-0.563-0.347-0.563c-0.413,0-1.271,1.366-1.866,2.356c-1.122,3.671-2.972,9.46-3.219,9.46
		c-0.248,0-0.463-0.427-0.463-0.974c0-1.469,3.22-12.566,3.468-12.566c0.445,0,1.057,0.717,1.057,1.126
		c0,0.086-0.231,0.923-0.595,2.118c0.892-1.4,2.212-3.125,3.252-3.125c0.396,0,0.562,0.461,0.562,1.024
		c0,1.571-1.767,5.43-1.767,5.908c0,0.085,0.05,0.136,0.1,0.136c0.545,0,2.542-2.834,2.675-2.834
		C40.502,225.832,37.135,229.794,36.177,229.794z"/>
	<path fill="#1D1D1B" d="M50.307,227.471c-0.957,1.229-1.997,2.1-2.642,2.1c-0.099,0-1.865-0.598-1.865-2.817
		c0-3.313,2.361-9.527,2.625-9.527c0.33,0,1.073,0.598,1.073,1.11c0,0.171-2.608,6.096-2.608,9.356c0,0.479,0.065,0.649,0.148,0.649
		c0.793,0,1.552-0.394,2.212-0.974c-1.105-0.324-1.535-1.298-1.535-2.544c0-1.759,2.146-3.928,3.896-3.928
		c0.627,0,0.941,0.547,0.941,1.298c0,1.417-0.76,3.107-1.701,4.525c0.1,0.033,0.215,0.033,0.33,0.033
		c1.338,0,2.015-1.707,2.279-1.689C53.461,225.183,52.42,227.317,50.307,227.471z M48.92,224.125c0,0.751,0.463,1.741,1.205,2.271
		c0.727-1.024,1.189-2.254,1.189-3.227c0-0.684-0.281-0.99-0.727-0.99C49.73,222.178,48.92,223.066,48.92,224.125z"/>
	<path fill="#1D1D1B" d="M58.297,229.418c-0.215,0-1.535-0.717-1.535-2.391c0-0.938,0.561-2.715,1.105-4.115l-0.065-0.085
		c-0.215-0.29-0.512-0.648-0.908-0.648c-1.338,0-2.89,2.526-2.89,4.883c0,1.247,0.528,1.98,0.793,1.98
		c0.727,0,1.271-0.922,1.437-0.922c0.017,0,0.049,0.034,0.049,0.052c0,0.137-0.858,1.297-1.485,1.297
		c-0.43,0-1.998-1.16-1.998-3.363c0-3.057,1.898-5.19,3.088-5.19c0.94,0,1.767,0.871,2.179,1.536c0.347-0.87,0.66-1.502,0.743-1.502
		c0.313,0,1.073,0.614,1.073,1.059c0,0.119-1.898,4.029-1.898,6.112c0,0.29,0.033,0.41,0.28,0.41c0.975,0,2.675-3.483,2.823-3.483
		C61.12,225.218,59.156,229.418,58.297,229.418z"/>
	<path fill="#1D1D1B" d="M65.181,227.471c-0.957,1.229-1.997,2.1-2.642,2.1c-0.099,0-1.865-0.598-1.865-2.817
		c0-3.313,2.361-9.527,2.625-9.527c0.33,0,1.073,0.598,1.073,1.11c0,0.171-2.608,6.096-2.608,9.356c0,0.479,0.065,0.649,0.148,0.649
		c0.792,0,1.552-0.394,2.212-0.974c-1.105-0.324-1.535-1.298-1.535-2.544c0-1.759,2.146-3.928,3.896-3.928
		c0.627,0,0.941,0.547,0.941,1.298c0,1.417-0.76,3.107-1.701,4.525c0.1,0.033,0.215,0.033,0.33,0.033
		c1.338,0,2.015-1.707,2.279-1.689C68.335,225.183,67.294,227.317,65.181,227.471z M63.794,224.125c0,0.751,0.463,1.741,1.205,2.271
		c0.727-1.024,1.189-2.254,1.189-3.227c0-0.684-0.281-0.99-0.727-0.99C64.604,222.178,63.794,223.066,63.794,224.125z"/>
	<path fill="#1D1D1B" d="M72.511,228.154c-0.892,3.228-1.866,6.522-2.146,6.522c-0.776,0-2.163-0.751-2.163-2.373
		c0-1.145,1.222-2.288,2.493-3.176c0.033-0.171,0.083-0.358,0.132-0.529c-0.577,0.7-1.238,1.298-1.815,1.298
		c-1.09,0-1.618-0.99-1.618-2.151c0-0.376,0.049-0.769,0.165-1.145c0.892-3.005,1.75-5.907,1.882-5.907
		c0.446,0,1.057,0.717,1.057,1.126c0,0.171-0.892,3.193-1.849,6.198c-0.1,0.291-0.133,0.513-0.133,0.649
		c0,0.153,0.033,0.222,0.116,0.222c0.775,0,1.98-1.503,2.757-2.391c0.793-2.954,1.535-5.737,1.717-5.737
		c0.545,0,0.991,0.889,0.991,1.298c0,0.103-0.677,2.801-1.47,5.687c1.8-1.486,2.345-2.732,2.443-2.681
		C75.07,225.576,74.013,226.908,72.511,228.154z M70.546,229.639c-1.47,1.127-1.965,1.998-1.965,2.954
		c0,0.358,0.313,0.819,0.693,0.819C69.456,233.413,69.968,231.757,70.546,229.639z"/>
	<path fill="#1D1D1B" d="M78.652,226.925c-0.281,1.571-2.031,2.938-2.708,2.938c-0.33,0-0.429-0.188-0.429-0.41
		c0-0.734,1.057-1.571,2.014-2.202c-0.049-1.4-1.007-2.288-1.552-3.347c-0.595,0.99-1.172,1.792-1.288,1.792
		c-0.017,0-0.017-0.017-0.017-0.068c0-0.102,0.578-1.059,1.156-2.049c-0.132-0.324-0.215-0.666-0.215-1.059
		c0-1.707,1.172-2.134,1.403-2.134s0.363,0.171,0.363,0.375c0,0.359-0.248,0.974-0.578,1.674c0.661,1.007,1.85,2.322,1.883,3.979
		c0.23-0.223,0.99-1.332,1.188-1.349C79.873,225.166,79.395,226.123,78.652,226.925z M77.447,227.915l-0.396,0.291
		c-0.462,0.324-0.809,0.563-0.809,0.7c0,0.102,0.032,0.188,0.148,0.188C76.489,229.094,77.198,228.649,77.447,227.915z
		 M76.605,222.127c0.148-0.324,0.247-0.58,0.247-0.717c0-0.188-0.05-0.393-0.182-0.393c-0.231,0-0.297,0.272-0.297,0.393
		C76.373,221.632,76.455,221.871,76.605,222.127z"/>
	<path fill="#1D1D1B" d="M81.788,229.639c-0.793,0-2.378-1.195-2.378-3.005c0-2.596,2.08-5.856,3.352-5.856
		c0.925,0,1.998,1.144,1.998,1.554c0,0.103-0.116,0.153-0.165,0.153c-0.148,0-0.314-0.478-0.81-0.478
		c-1.073,0-3.137,3.09-3.137,5.566c0,1.024,0.297,1.212,0.743,1.212c1.965,0,4.309-3.773,4.573-3.722
		C85.965,225.405,83.555,229.639,81.788,229.639z"/>
	<path fill="#1D1D1B" d="M88.919,229.794c-0.149,0-0.298-0.205-0.298-0.427c0-1.145,1.437-4.781,1.437-6.387
		c0-0.307-0.182-0.563-0.363-0.563c-0.594,0-1.865,1.708-2.608,2.698c-0.842,2.407-1.635,4.508-1.8,4.508
		c-0.247,0-0.479-0.427-0.479-0.974c0-1.468,3.252-11.628,3.5-11.628c0.445,0,1.057,0.718,1.057,1.11
		c0,0.188-0.99,3.278-2.015,6.198c1.057-1.435,2.84-3.518,3.996-3.518c0.396,0,0.562,0.461,0.562,1.024
		c0,1.571-1.437,5.43-1.437,5.908c0,0.085,0.033,0.136,0.082,0.136c0.562,0,2.543-2.834,2.691-2.834
		C93.244,225.832,89.876,229.794,88.919,229.794z"/>
	<path fill="#1D1D1B" d="M97.503,227.471c-0.958,1.229-1.998,2.1-2.642,2.1c-1.189,0-2.064-1.161-2.064-2.971
		c0-2.391,1.321-5.601,1.783-5.601c0.38,0,0.875,0.563,0.875,1.076c0,0.222-1.519,2.612-1.519,5.549c0,1.042,0.33,1.229,0.825,1.229
		c0.611,0,1.288-0.598,1.915-1.435c-1.271-0.238-1.767-1.28-1.767-2.595c0-1.759,2.146-3.928,3.896-3.928
		c0.628,0,0.941,0.547,0.941,1.298c0,1.417-0.76,3.107-1.7,4.525c0.099,0.033,0.214,0.033,0.33,0.033
		c1.337,0,2.014-1.707,2.278-1.689C100.656,225.183,99.616,227.317,97.503,227.471z M97.338,226.413
		c0.693-1.179,1.172-2.51,1.172-3.244c0-0.684-0.28-0.99-0.727-0.99c-0.858,0-1.667,0.888-1.667,1.946
		C96.116,224.876,96.595,225.9,97.338,226.413z"/>
	<path fill="#1D1D1B" d="M102.39,229.639c-0.793,0-2.378-1.195-2.378-3.005c0-2.596,2.08-5.856,3.352-5.856
		c1.519,0,2.51,1.314,2.51,1.896c0,1.912-2.526,2.8-4.276,2.92c-0.215,0.665-0.347,1.331-0.347,1.98
		c0,1.024,0.297,1.212,0.743,1.212c1.965,0,4.292-3.739,4.573-3.739C106.567,225.405,104.156,229.639,102.39,229.639z
		 M101.663,225.439c1.568-0.137,3.285-0.922,3.285-2.715c0-0.375-0.413-0.717-0.562-0.717
		C103.612,222.008,102.323,223.612,101.663,225.439z"/>
	<path fill="#1D1D1B" d="M109.256,229.794c-0.148,0-0.298-0.205-0.298-0.427c0-1.145,1.437-4.781,1.437-6.387
		c0-0.307-0.182-0.563-0.363-0.563c-0.462,0-1.354,1.059-2.08,1.998c-0.743,2.441-1.865,5.379-2.84,5.379
		c-0.198,0-0.23-0.171-0.23-0.393c0-0.786,2.063-6.232,2.063-7.052c0-0.273,1.007-1.469,1.618-1.469c0.165,0,0.23,0.188,0.23,0.375
		c0,0.068-0.247,1.127-0.644,2.477c1.073-1.366,2.543-2.92,3.533-2.92c0.396,0,0.562,0.461,0.562,1.024
		c0,1.571-1.437,5.43-1.437,5.908c0,0.085,0.033,0.136,0.082,0.136c0.562,0,2.543-2.834,2.691-2.834
		C113.581,225.832,110.213,229.794,109.256,229.794z"/>
	<path fill="#1D1D1B" d="M116.833,218.524c0.247,0,1.42,0.939,1.42,1.485c0,0.171-0.132,0.273-0.231,0.273
		c-0.677,0-1.32-0.018-1.915-0.034c-0.793,2.51-1.981,6.454-1.981,7.871c0,0.29,0.033,0.41,0.281,0.41
		c0.858,0,2.855-3.552,2.855-3.466c0,0.153-1.964,4.354-2.839,4.354c-0.248,0-1.52-0.017-1.52-1.656c0-1.52,0.925-4.985,1.733-7.564
		c-1.684-0.102-2.724-0.307-2.724-0.563c0-0.153,1.75-0.563,3.17-0.836c0.363-1.076,0.644-1.793,0.71-1.793
		c0.247,0,1.007,0.41,1.007,1.041c0,0.018-0.05,0.205-0.148,0.479H116.833z"/>
	<path fill="#1D1D1B" d="M118.996,228.154c-0.892,3.228-1.882,6.522-2.163,6.522c-0.759,0-2.146-0.751-2.146-2.373
		c0-1.145,1.222-2.288,2.477-3.176l1.371-5.055c-0.71,0.889-1.453,1.622-1.569,1.622c-0.016,0-0.032-0.017-0.032-0.068
		c0-0.341,1.452-1.792,2.195-3.705c0.231-0.717,0.38-1.161,0.463-1.161c0.544,0,0.99,0.889,0.99,1.298
		c0,0.103-0.693,2.801-1.47,5.687c1.8-1.486,2.345-2.698,2.427-2.698C121.538,225.594,120.466,226.925,118.996,228.154z
		 M117.031,229.639c-1.47,1.127-1.965,1.998-1.965,2.954c0,0.358,0.298,0.819,0.693,0.819
		C115.942,233.413,116.437,231.757,117.031,229.639z M121.688,217.995c0,0.222-0.479,0.342-0.479,0.342s0.133,0.204,0.133,0.358
		c0,0.119-0.083,0.188-0.198,0.188c-0.628,0-1.453-0.683-1.453-1.366c0-0.341,0.562-0.495,0.858-0.495
		C121.11,217.021,121.688,217.773,121.688,217.995z"/>
	<path fill="#1D1D1B" d="M123.355,229.639c-0.793,0-2.378-1.195-2.378-3.005c0-2.596,2.08-5.856,3.352-5.856
		c1.519,0,2.51,1.314,2.51,1.896c0,1.912-2.526,2.8-4.276,2.92c-0.215,0.665-0.347,1.331-0.347,1.98
		c0,1.024,0.297,1.212,0.743,1.212c1.965,0,4.292-3.739,4.573-3.739C127.531,225.405,125.121,229.639,123.355,229.639z
		 M122.628,225.439c1.568-0.137,3.285-0.922,3.285-2.715c0-0.375-0.413-0.717-0.562-0.717
		C124.576,222.008,123.288,223.612,122.628,225.439z"/>
	<path fill="#1D1D1B" d="M131.079,226.925c-0.281,1.571-2.031,2.938-2.708,2.938c-0.33,0-0.429-0.188-0.429-0.41
		c0-0.734,1.057-1.571,2.014-2.202c-0.049-1.4-1.007-2.288-1.552-3.347c-0.595,0.99-1.172,1.792-1.288,1.792
		c-0.017,0-0.017-0.017-0.017-0.068c0-0.102,0.578-1.059,1.156-2.049c-0.132-0.324-0.215-0.666-0.215-1.059
		c0-1.707,1.172-2.134,1.403-2.134s0.363,0.171,0.363,0.375c0,0.359-0.248,0.974-0.578,1.674c0.661,1.007,1.85,2.322,1.883,3.979
		c0.23-0.223,0.99-1.332,1.188-1.349C132.301,225.166,131.823,226.123,131.079,226.925z M129.874,227.915l-0.396,0.291
		c-0.462,0.324-0.809,0.563-0.809,0.7c0,0.102,0.032,0.188,0.148,0.188C128.916,229.094,129.626,228.649,129.874,227.915z
		 M129.032,222.127c0.148-0.324,0.247-0.58,0.247-0.717c0-0.188-0.05-0.393-0.182-0.393c-0.231,0-0.297,0.272-0.297,0.393
		C128.801,221.632,128.883,221.871,129.032,222.127z"/>
</g>
<g>
	<path fill="#1D1D1B" d="M19.995,85.022c-0.037,0.147-0.184,0.221-0.367,0.257c1.8,2.462,5.162,5.365,8.01,6.927
		c-0.313,0.294-0.606,0.698-0.827,1.065c-2.902-1.745-6.228-4.666-7.937-7.073c-1.488,2.297-4.574,5.236-7.753,7.202
		c-0.165-0.276-0.514-0.698-0.771-0.956c3.215-1.892,6.431-5.033,7.882-7.551L19.995,85.022z M23.963,94.539l0.239-0.055
		l0.882,0.349c-0.037,0.11-0.092,0.184-0.165,0.275c-0.772,1.69-2.224,4.74-3.418,7.036l-1.268-0.349
		c0.992-1.874,2.187-4.354,2.977-6.081H12.499v-1.176H23.963z M14.869,90.92h8.212v1.157h-8.212V90.92z"/>
	<path fill="#1D1D1B" d="M37.894,88.035c-0.019-0.404-0.074-2.406-0.11-2.865l1.892,0.073c-0.018,0.146-0.146,0.33-0.478,0.386
		c0,0.221,0,0.44,0.037,2.37c2.26-0.074,4.63-0.129,6.008-0.147v1.268c-1.562-0.036-3.785,0-5.971,0.074
		c0.036,1.433,0.073,2.755,0.128,3.766c0.184,0.606,0.221,1.157,0.221,1.929c0,0.588-0.055,1.268-0.184,1.782
		c-0.478,2.149-2.058,4.042-5.291,5.328c-0.239-0.313-0.644-0.771-0.938-1.047c2.812-1.011,4.317-2.536,4.777-4.281h-0.019
		c-0.386,0.552-1.065,0.974-1.893,0.974c-1.635,0-3.086-1.341-3.086-3.215c-0.019-1.947,1.562-3.436,3.307-3.436
		c0.661,0,1.341,0.239,1.708,0.569c0-0.313-0.036-1.543-0.073-2.333c-1.91,0.037-7.716,0.239-8.469,0.275l-0.037-1.212l4.188-0.11
		L37.894,88.035z M38.242,94.484c0-0.717,0-2.389-1.874-2.389c-1.268,0.019-2.168,0.992-2.186,2.333
		c0,1.286,0.974,2.131,2.039,2.131C37.526,96.559,38.242,95.55,38.242,94.484z"/>
	<path fill="#1D1D1B" d="M56.563,101.925c-1.855-2.168-4.722-4.888-7.201-6.835c-0.919-0.734-1.25-1.249-1.25-1.91
		c0-0.533,0.294-1.047,0.974-1.672c1.672-1.543,4.813-4.52,6.577-6.32l1.562,1.029c-0.036,0.037-0.165,0.184-0.404,0.184
		c-0.073,0-0.146-0.019-0.22-0.037c-1.837,1.764-4.703,4.263-6.21,5.677c-0.44,0.423-0.79,0.79-0.79,1.084
		c0,0.313,0.331,0.68,0.974,1.158c2.426,1.873,5.016,4.243,7.257,6.669L56.563,101.925z M56.655,89.836
		c0.9,0.643,1.966,1.727,2.535,2.498l-0.661,0.588c-0.551-0.789-1.69-1.91-2.48-2.517L56.655,89.836z M58.602,88.091
		c0.9,0.661,1.984,1.708,2.535,2.498l-0.68,0.588c-0.514-0.734-1.598-1.837-2.479-2.498L58.602,88.091z"/>
	<path fill="#1D1D1B" d="M66.084,98.213c-0.037,0.11-0.147,0.185-0.35,0.166c-0.44,1.341-1.176,2.792-2.002,3.674
		c-0.202-0.184-0.606-0.478-0.882-0.643c0.79-0.809,1.488-2.205,1.855-3.601L66.084,98.213z M68.968,85.702v11.685h-5.181V85.702
		H68.968z M67.848,89.266v-2.518h-2.977v2.518H67.848z M67.848,92.794v-2.535h-2.977v2.535H67.848z M67.848,96.34v-2.554h-2.977
		v2.554H67.848z M68.013,97.809c0.606,0.882,1.268,2.075,1.562,2.847c-0.221,0.11-0.44,0.202-1.011,0.496
		c-0.275-0.789-0.918-2.021-1.487-2.921L68.013,97.809z M80.102,97.864v0.974h-1.359v1.929c0,1.268-0.533,1.323-3.325,1.323
		c-0.056-0.313-0.202-0.735-0.35-1.029c0.588,0.019,1.157,0.037,1.58,0.037c0.863,0,0.955,0,0.955-0.349v-1.911h-5.842v3.252H70.64
		v-3.252h-1.396v-0.974h1.396v-4.482h3.436V92.04h-4.63v-0.955h2.628v-1.249h-1.58v-0.938h1.58v-1.212H69.85v-0.955h2.224v-1.709
		l1.47,0.092c-0.019,0.11-0.11,0.202-0.35,0.239v1.378h2.939v-1.709l1.47,0.092c-0.019,0.129-0.11,0.202-0.349,0.239v1.378h2.37
		v0.955h-2.37v1.212h1.874v0.938h-1.874v1.249h2.756v0.955h-4.813v1.342h3.546v4.482H80.102z M74.075,94.337h-2.314v1.286h2.314
		V94.337z M71.761,96.541v1.323h2.314v-1.323H71.761z M73.194,87.686v1.212h2.939v-1.212H73.194z M73.194,89.836v1.249h2.939v-1.249
		H73.194z M77.603,94.337h-2.406v1.286h2.406V94.337z M75.197,97.864h2.406v-1.323h-2.406V97.864z"/>
	<path fill="#1D1D1B" d="M89.457,86.143h1.249c0,3.288,0.423,10.416,7.845,14.825c-0.275,0.221-0.771,0.735-0.992,1.048
		c-4.776-2.903-6.761-7.11-7.569-10.692c-1.322,4.905-3.711,8.579-7.568,10.71c-0.239-0.257-0.717-0.716-1.029-0.937
		c4.061-2.112,6.43-6.025,7.588-11.372l0.753,0.184c-0.147-0.918-0.221-1.764-0.239-2.498h-4.685v-1.25h4.648V86.143z"/>
	<path fill="#1D1D1B" d="M103.92,85.794c-0.037,0.221-0.202,0.35-0.569,0.404c-0.147,2.131-0.331,7-0.331,9.719
		c0,2.737,1.359,4.06,3.675,4.06c2.241,0,4.52-1.12,6.613-3.49c0.184,0.294,0.606,0.882,0.827,1.084
		c-2.149,2.443-4.759,3.729-7.459,3.729c-3.344,0-5.053-1.929-5.053-5.401c0-2.314,0.166-8.01,0.294-10.27L103.92,85.794z"/>
	<path fill="#1D1D1B" d="M116.105,87.851c1.14,0.073,2.664,0.073,3.913,0.073c0.827,0,1.764-0.018,2.535-0.036
		c-0.018-0.882-0.036-1.911-0.036-2.554l1.855,0.092c-0.019,0.221-0.184,0.331-0.496,0.386c-0.019,0.294,0,1.709,0,2.021
		c2.149-0.11,4.28-0.294,6.1-0.716l0.165,1.212c-1.801,0.404-3.932,0.588-6.265,0.698c0.019,1.103,0.037,2.241,0.073,3.381
		c1.782-0.11,3.692-0.35,5.181-0.717l0.147,1.194c-1.543,0.33-3.473,0.551-5.31,0.643l0.146,3.068
		c1.69,0.551,3.491,1.507,5.401,2.866l-0.808,1.12c-1.654-1.304-3.216-2.186-4.557-2.7c0,0.294,0.019,0.624,0.019,0.863
		c-0.019,1.745-1.065,2.756-3.288,2.756c-2.334,0-4.042-0.955-4.042-2.683c0-1.764,2.002-2.737,4.06-2.737
		c0.606,0,1.25,0.056,1.93,0.221c-0.019-0.79-0.056-1.745-0.074-2.737c-0.588,0.019-1.249,0.036-1.781,0.036
		c-3.142,0-4.023-0.495-4.023-1.562c0-0.697,0.532-1.268,1.708-2.021l0.882,0.569c-0.826,0.46-1.268,0.863-1.268,1.231
		c0,0.551,0.863,0.661,3.197,0.661c0.403,0,0.826,0,1.23-0.019l-0.11-3.398c-0.79,0.036-1.708,0.036-2.535,0.036
		c-1.176,0-2.848,0-3.95-0.036V87.851z M122.903,97.424c-0.735-0.202-1.415-0.295-2.058-0.295c-1.396,0-2.811,0.57-2.811,1.672
		c0,1.084,1.285,1.617,2.884,1.617c1.451,0,2.003-0.643,2.003-1.929L122.903,97.424z"/>
	<path fill="#1D1D1B" d="M141.352,88.035c-0.019-0.404-0.074-2.406-0.11-2.865l1.892,0.073c-0.018,0.146-0.146,0.33-0.478,0.386
		c0,0.221,0,0.44,0.037,2.37c2.26-0.074,4.63-0.129,6.008-0.147v1.268c-1.562-0.036-3.785,0-5.971,0.074
		c0.036,1.433,0.073,2.755,0.128,3.766c0.184,0.606,0.221,1.157,0.221,1.929c0,0.588-0.055,1.268-0.184,1.782
		c-0.478,2.149-2.058,4.042-5.291,5.328c-0.239-0.313-0.644-0.771-0.938-1.047c2.812-1.011,4.317-2.536,4.777-4.281h-0.019
		c-0.386,0.552-1.065,0.974-1.893,0.974c-1.635,0-3.086-1.341-3.086-3.215c-0.019-1.947,1.562-3.436,3.307-3.436
		c0.661,0,1.341,0.239,1.709,0.569c0-0.313-0.037-1.543-0.074-2.333c-1.91,0.037-7.716,0.239-8.469,0.275l-0.037-1.212l4.188-0.11
		L141.352,88.035z M141.7,94.484c0-0.717,0-2.389-1.874-2.389c-1.268,0.019-2.168,0.992-2.187,2.333c0,1.286,0.975,2.131,2.04,2.131
		C140.984,96.559,141.7,95.55,141.7,94.484z"/>
	<path fill="#1D1D1B" d="M156.447,92.381c0,0.521-0.146,0.932-0.439,1.233s-0.709,0.453-1.247,0.453
		c-0.532,0-0.948-0.151-1.247-0.453c-0.3-0.302-0.449-0.713-0.449-1.233c0-0.515,0.149-0.926,0.449-1.234
		c0.299-0.308,0.715-0.462,1.247-0.462c0.538,0,0.954,0.154,1.247,0.462C156.3,91.455,156.447,91.866,156.447,92.381z
		 M155.738,92.381c0-0.306-0.085-0.546-0.256-0.723c-0.17-0.177-0.411-0.265-0.722-0.265c-0.312,0-0.555,0.088-0.731,0.265
		s-0.265,0.417-0.265,0.723c0,0.305,0.088,0.546,0.265,0.722c0.177,0.177,0.42,0.265,0.731,0.265c0.311,0,0.552-0.088,0.722-0.265
		C155.653,92.927,155.738,92.685,155.738,92.381z"/>
</g>
<g>
	<path fill="#1D1D1B" d="M11.41,169.157h7.536v0.749h-3.394v5.344h4.187v0.749h-9.1v-0.749h4.12v-5.344h-3.35V169.157z"/>
	<path fill="#1D1D1B" d="M25,167.57l1.068,0.066c-0.011,0.1-0.11,0.198-0.286,0.221v1.74h2.941l0.165-0.065l0.684,0.308
		c-0.022,0.045-0.066,0.089-0.121,0.122c-0.507,3.845-2.115,6.081-5.597,7.304c-0.1-0.188-0.342-0.474-0.507-0.661
		c3.261-1.124,4.771-3.162,5.155-6.258h-6.169v2.722h-0.782v-3.471H25V167.57z M27.754,167.174c0.452,0.485,0.992,1.179,1.256,1.697
		l-0.451,0.264c-0.254-0.474-0.782-1.211-1.212-1.674L27.754,167.174z M29.374,166.91c0.462,0.484,0.991,1.167,1.256,1.686
		l-0.452,0.275c-0.242-0.485-0.771-1.201-1.212-1.675L29.374,166.91z"/>
	<path fill="#1D1D1B" d="M38.963,170.314c-0.011,0.032-0.066,0.065-0.11,0.076c-0.474,1.08-1.421,2.248-2.247,2.931
		c-0.121-0.11-0.386-0.297-0.54-0.396c0.782-0.572,1.619-1.586,1.895-2.291h-6.378v-0.628h6.709l0.088-0.056L38.963,170.314z
		 M35.427,171.9c-0.022,0.066-0.088,0.132-0.21,0.154c-0.242,1.972-0.98,3.834-2.775,5.035c-0.133-0.11-0.397-0.32-0.573-0.419
		c1.807-1.157,2.468-2.755,2.677-4.892L35.427,171.9z"/>
	<path fill="#1D1D1B" d="M40.556,168.463c1.146,0.364,2.468,0.937,3.282,1.499l-0.418,0.693c-0.794-0.562-2.094-1.146-3.217-1.531
		L40.556,168.463z M40.511,176.097c3.911-1.212,6.512-3.404,7.833-6.456c0.231,0.188,0.485,0.331,0.717,0.452
		c-1.377,3.019-4.065,5.365-7.8,6.61c-0.012,0.099-0.077,0.209-0.154,0.253L40.511,176.097z"/>
	<path fill="#1D1D1B" d="M53.529,172.374c0,0.628-0.507,1.135-1.135,1.135s-1.135-0.507-1.135-1.135s0.507-1.135,1.135-1.135
		C53.043,171.239,53.529,171.768,53.529,172.374z"/>
	<path fill="#1D1D1B" d="M59.903,167.57l1.068,0.066c-0.011,0.1-0.11,0.198-0.286,0.221v1.74h2.941l0.165-0.065l0.684,0.308
		c-0.022,0.045-0.066,0.089-0.121,0.122c-0.507,3.845-2.115,6.081-5.597,7.304c-0.1-0.188-0.342-0.474-0.507-0.661
		c3.261-1.124,4.771-3.162,5.155-6.258h-6.169v2.722h-0.782v-3.471h3.448V167.57z M62.656,167.174
		c0.452,0.485,0.992,1.179,1.256,1.697l-0.451,0.264c-0.254-0.474-0.782-1.211-1.212-1.674L62.656,167.174z M64.277,166.91
		c0.462,0.484,0.991,1.167,1.256,1.686l-0.452,0.275c-0.242-0.485-0.771-1.201-1.212-1.675L64.277,166.91z"/>
	<path fill="#1D1D1B" d="M73.227,170.667v0.639h-2.71v4.329h3.327v0.64h-7.359v-0.64h3.327v-4.329h-2.688v-0.639H73.227z"/>
	<path fill="#1D1D1B" d="M83.93,171.151c-0.022,0.044-0.077,0.088-0.144,0.11c-0.903,3.327-2.743,4.946-6.037,5.86
		c-0.1-0.198-0.309-0.474-0.463-0.639c2.997-0.749,4.858-2.291,5.553-4.848h-7.293v-0.749h7.623l0.11-0.066L83.93,171.151z
		 M82.894,168.794h-6.279v-0.728h6.279V168.794z"/>
	<path fill="#1D1D1B" d="M93.178,169.762c-0.044,0.066-0.099,0.122-0.165,0.166c-1.168,3.646-2.975,5.85-5.96,7.37
		c-0.121-0.188-0.342-0.44-0.562-0.606c2.831-1.377,4.604-3.492,5.541-6.488h-3.889c-0.639,0.991-1.454,1.917-2.435,2.688
		c-0.144-0.154-0.408-0.363-0.617-0.495c1.498-1.124,2.743-2.864,3.492-4.826l1.036,0.287c-0.033,0.11-0.166,0.154-0.309,0.143
		c-0.221,0.496-0.474,1.025-0.728,1.466h3.834l0.132-0.066L93.178,169.762z M91.812,167.229c0.519,0.418,1.124,1.091,1.443,1.564
		l-0.407,0.353c-0.331-0.507-0.926-1.157-1.421-1.564L91.812,167.229z M93.409,166.91c0.518,0.418,1.124,1.079,1.443,1.564
		l-0.407,0.341c-0.331-0.495-0.903-1.135-1.422-1.553L93.409,166.91z"/>
	<path fill="#1D1D1B" d="M98.45,172.374c0,0.628-0.507,1.135-1.135,1.135s-1.135-0.507-1.135-1.135s0.507-1.135,1.135-1.135
		C97.965,171.239,98.45,171.768,98.45,172.374z"/>
	<path fill="#1D1D1B" d="M107.359,173.442c-1.124-0.605-2.666-1.321-3.867-1.795v5.497h-0.826v-9.574l1.113,0.066
		c-0.012,0.121-0.1,0.198-0.287,0.231v3.239l0.165-0.242c1.289,0.474,2.997,1.233,4.143,1.84L107.359,173.442z M106.201,168.254
		c0.507,0.419,1.168,1.112,1.521,1.619l-0.418,0.342c-0.331-0.474-1.003-1.212-1.499-1.608L106.201,168.254z M107.678,167.306
		c0.518,0.43,1.179,1.123,1.51,1.608l-0.397,0.342c-0.341-0.475-1.013-1.201-1.509-1.609L107.678,167.306z"/>
	<path fill="#1D1D1B" d="M113.424,172.374c0,0.628-0.507,1.135-1.135,1.135s-1.135-0.507-1.135-1.135s0.507-1.135,1.135-1.135
		C112.939,171.239,113.424,171.768,113.424,172.374z"/>
	<path fill="#1D1D1B" d="M119.578,167.515l1.102,0.066c-0.011,0.11-0.144,0.209-0.309,0.22v1.73h2.953l0.165-0.066l0.683,0.309
		c-0.021,0.044-0.077,0.088-0.121,0.121c-0.507,3.855-2.104,6.092-5.597,7.315c-0.11-0.188-0.341-0.475-0.518-0.661
		c3.272-1.124,4.781-3.173,5.156-6.269h-6.225v2.731h-0.761v-3.48h3.471V167.515z"/>
	<path fill="#1D1D1B" d="M132.231,170.148c-0.044,0.056-0.11,0.077-0.187,0.077c-0.056,0-0.1-0.011-0.154-0.021
		c-0.705,0.705-1.609,1.454-2.424,2.038c0.143,0.055,0.209,0.077,0.242,0.099c-0.022,0.044-0.1,0.1-0.188,0.121v4.781h-0.672v-4.594
		c-0.937,0.661-2.435,1.531-3.625,2.104c-0.088-0.133-0.264-0.396-0.396-0.518c1.896-0.871,4.737-2.534,6.644-4.627L132.231,170.148
		z"/>
	<path fill="#1D1D1B" d="M133.834,171.79h9.198v0.782h-8.78c-0.065,0.11-0.209,0.188-0.353,0.21L133.834,171.79z"/>
	<path fill="#1D1D1B" d="M147.777,172.374c0,0.628-0.507,1.135-1.135,1.135s-1.135-0.507-1.135-1.135s0.507-1.135,1.135-1.135
		C147.291,171.239,147.777,171.768,147.777,172.374z"/>
	<path fill="#1D1D1B" d="M151.021,169.157h7.536v0.749h-3.394v5.344h4.187v0.749h-9.1v-0.749h4.12v-5.344h-3.35V169.157z"/>
	<path fill="#1D1D1B" d="M161.338,168.463c1.146,0.364,2.468,0.937,3.282,1.499l-0.418,0.693c-0.794-0.562-2.094-1.146-3.217-1.531
		L161.338,168.463z M161.293,176.097c3.911-1.212,6.512-3.404,7.833-6.456c0.231,0.188,0.485,0.331,0.717,0.452
		c-1.377,3.019-4.065,5.365-7.8,6.61c-0.012,0.099-0.077,0.209-0.154,0.253L161.293,176.097z"/>
	<path fill="#1D1D1B" d="M174.312,172.374c0,0.628-0.507,1.135-1.135,1.135s-1.135-0.507-1.135-1.135s0.507-1.135,1.135-1.135
		C173.826,171.239,174.312,171.768,174.312,172.374z"/>
	<path fill="#1D1D1B" d="M185.455,168.275c-0.044,0.056-0.11,0.089-0.209,0.089c-0.033,0-0.066,0-0.11-0.012
		c-0.849,0.859-2.071,1.862-3.14,2.634c0.088,0.033,0.22,0.099,0.264,0.121c-0.021,0.065-0.121,0.132-0.242,0.143v5.916h-0.804
		v-5.662c-1.168,0.826-2.688,1.719-4.198,2.457c-0.109-0.177-0.308-0.452-0.462-0.606c3.007-1.388,6.302-3.745,8.075-5.695
		L185.455,168.275z"/>
	<path fill="#1D1D1B" d="M194.528,169.664c-0.044,0.055-0.1,0.11-0.165,0.154c-1.157,3.569-2.964,5.861-6.005,7.403
		c-0.132-0.188-0.341-0.44-0.562-0.606c2.887-1.398,4.671-3.603,5.586-6.521h-3.934c-0.639,0.991-1.487,1.95-2.468,2.721
		c-0.154-0.154-0.407-0.363-0.628-0.507c1.498-1.156,2.766-2.842,3.515-4.781l1.047,0.298c-0.045,0.11-0.177,0.144-0.32,0.144
		c-0.22,0.484-0.451,0.947-0.705,1.388h3.878l0.133-0.066L194.528,169.664z"/>
</g>
<g>
	<path fill="#1D1D1B" d="M19.516,246.302c-0.051,0.063-0.113,0.125-0.188,0.175c-1.313,4.05-3.362,6.648-6.812,8.398
		c-0.149-0.213-0.387-0.5-0.637-0.688c3.273-1.587,5.299-4.087,6.336-7.398h-4.462c-0.725,1.125-1.687,2.212-2.799,3.087
		c-0.175-0.175-0.463-0.412-0.713-0.575c1.7-1.312,3.137-3.224,3.986-5.423l1.188,0.337c-0.05,0.125-0.2,0.162-0.362,0.162
		c-0.25,0.55-0.513,1.075-0.8,1.575h4.399l0.149-0.075L19.516,246.302z"/>
	<path fill="#1D1D1B" d="M21.243,248.715h10.436v0.888h-9.96c-0.075,0.124-0.237,0.212-0.4,0.237L21.243,248.715z"/>
	<path fill="#1D1D1B" d="M33.494,245.44h7.948l0.075-0.037l0.85,0.649c-0.037,0.05-0.075,0.088-0.15,0.112
		c-1.012,4.699-3.187,7.148-7.011,8.599c-0.137-0.226-0.387-0.55-0.562-0.737c3.636-1.338,5.735-3.662,6.548-7.724h-7.698V245.44z
		 M43.017,243.204c0.75,0,1.362,0.612,1.362,1.374c0,0.75-0.612,1.362-1.362,1.362c-0.762,0-1.374-0.612-1.374-1.362
		C41.643,243.791,42.28,243.204,43.017,243.204z M43.967,244.578c0-0.537-0.425-0.962-0.95-0.962c-0.524,0-0.962,0.425-0.962,0.962
		c0,0.525,0.438,0.963,0.962,0.963C43.567,245.541,43.967,245.078,43.967,244.578z"/>
	<path fill="#1D1D1B" d="M51.381,245.852c-0.051,0.113-0.15,0.2-0.313,0.2c-0.45,3.887-1.75,7.273-3.824,7.273
		c-1.05,0-2-1.05-2-3.024c0-2.999,2.337-5.511,5.624-5.511c3.611,0,5.174,2.287,5.174,4.724c0,2.975-1.725,4.411-4.749,5.111
		c-0.112-0.2-0.325-0.537-0.524-0.763c2.874-0.55,4.349-1.949,4.349-4.312c0-2.062-1.325-3.937-4.249-3.937
		c-0.125,0-0.263,0.013-0.375,0.025L51.381,245.852z M50.181,245.69c-2.524,0.313-4.086,2.399-4.086,4.587
		c0,1.337,0.574,2.174,1.174,2.174C48.781,252.451,49.868,249.114,50.181,245.69z"/>
	<path fill="#1D1D1B" d="M63.558,250.101c0.95-0.999,2.925-3.199,3.637-3.961c0.325-0.325,0.65-0.475,0.976-0.475
		c0.337,0,0.675,0.175,1.012,0.475c1.612,1.475,4.212,4.361,6.099,6.811l-0.75,0.688c-1.774-2.462-4.387-5.424-5.786-6.724
		c-0.212-0.2-0.375-0.313-0.537-0.313s-0.313,0.125-0.513,0.313c-0.587,0.638-2.412,2.737-3.249,3.637
		c0.013,0.025,0.013,0.063,0.013,0.088c0,0.1-0.05,0.199-0.125,0.262L63.558,250.101z M71.844,244.916
		c0.574,0.5,1.212,1.274,1.574,1.824l-0.475,0.375c-0.362-0.55-1.024-1.362-1.563-1.824L71.844,244.916z M73.319,243.816
		c0.575,0.512,1.225,1.262,1.587,1.824l-0.475,0.375c-0.362-0.55-1.037-1.35-1.563-1.813L73.319,243.816z"/>
	<path fill="#1D1D1B" d="M83.67,253.464c0.5-0.013,1.837-0.063,2.624-0.188c0.013,0.274,0.025,0.625,0.05,0.899
		c-0.824,0.088-2.074,0.138-2.587,0.138h-3.124c-1.887,0-2.799-0.825-2.799-2.612v-7.285l1.225,0.075
		c-0.025,0.125-0.112,0.199-0.338,0.225v4.074c1.912-0.601,4.574-1.6,6.198-2.475l0.638,0.862c-0.037,0.025-0.1,0.037-0.149,0.037
		c-0.063,0-0.113-0.012-0.176-0.037c-1.512,0.763-4.361,1.812-6.511,2.462v2.087c0,1.262,0.612,1.737,1.899,1.737H83.67z
		 M84.845,244.053c0.574,0.512,1.199,1.287,1.549,1.837l-0.475,0.362c-0.35-0.55-1-1.362-1.524-1.837L84.845,244.053z
		 M86.382,243.303c0.563,0.513,1.199,1.274,1.549,1.824l-0.475,0.362c-0.35-0.55-1.012-1.35-1.524-1.824L86.382,243.303z"/>
	<path fill="#1D1D1B" d="M88.622,248.715h10.436v0.888h-9.96c-0.075,0.124-0.237,0.212-0.4,0.237L88.622,248.715z"/>
	<path fill="#1D1D1B" d="M100.998,247.514c1.125,0.25,2.524,0.726,3.362,1.125l-0.375,0.787c-0.825-0.399-2.263-0.899-3.362-1.149
		L100.998,247.514z M101.748,253.626c4.062-1.362,6.836-3.524,8.498-7.273c0.188,0.163,0.575,0.425,0.763,0.55
		c-1.675,3.712-4.587,6.023-8.411,7.386c0.025,0.113-0.037,0.263-0.149,0.313L101.748,253.626z M102.373,244.416
		c1.125,0.3,2.499,0.8,3.349,1.225l-0.412,0.763c-0.887-0.45-2.187-0.95-3.312-1.263L102.373,244.416z"/>
	<path fill="#1D1D1B" d="M121.023,248.139c-0.038,0.038-0.088,0.075-0.138,0.088c-0.5,1.287-1.35,2.537-2.25,3.462
		c-0.149-0.138-0.425-0.313-0.624-0.425c0.725-0.663,1.524-1.825,1.874-2.662l-3.499,0.774l1.149,5.336l-0.737,0.163l-1.149-5.336
		l-2.85,0.649l-0.162-0.7l2.874-0.637l-0.563-2.6l1.037-0.1c0,0.1-0.063,0.175-0.225,0.25l0.475,2.274l4.112-0.888l0.087-0.063
		L121.023,248.139z"/>
	<path fill="#1D1D1B" d="M132.686,245.315c-0.038,0.05-0.101,0.101-0.162,0.125c-0.488,4.887-2.15,7.511-6.324,9.198
		c-0.162-0.213-0.412-0.487-0.625-0.675c3.987-1.625,5.549-3.999,5.962-8.099h-7.136v3.449h-0.862v-4.299h8.285l0.138-0.1
		L132.686,245.315z"/>
	<path fill="#1D1D1B" d="M134.626,248.715h10.436v0.888h-9.96c-0.075,0.124-0.237,0.212-0.4,0.237L134.626,248.715z"/>
</g>
<g>
	<g>
		<circle fill="#1D1D1B" cx="17.711" cy="124.927" r="2.574"/>
		<circle fill="#1D1D1B" cx="55.581" cy="124.927" r="2.573"/>
		<circle fill="#1D1D1B" cx="95.748" cy="124.927" r="2.574"/>
		<circle fill="#1D1D1B" cx="126.357" cy="124.927" r="2.574"/>
		<circle fill="#1D1D1B" cx="150.491" cy="124.927" r="2.573"/>
		<circle fill="#1D1D1B" cx="174.704" cy="124.927" r="2.573"/>
	</g>
	<circle fill="#1D1D1B" cx="188.784" cy="124.927" r="2.574"/>
</g>
<rect x="0" y="0" fill="none" width="208.482" height="297.848"/>
</svg>
