<?xml version="1.0" encoding="utf-8"?>
<!-- Generator: Adobe Illustrator 16.0.0, SVG Export Plug-In . SVG Version: 6.00 Build 0)  -->
<!DOCTYPE svg PUBLIC "-//W3C//DTD SVG 1.1//EN" "http://www.w3.org/Graphics/SVG/1.1/DTD/svg11.dtd">
<svg version="1.1" id="Layer_1" xmlns="http://www.w3.org/2000/svg" xmlns:xlink="http://www.w3.org/1999/xlink" x="0px" y="0px"
	 width="182.967px" height="289.532px" viewBox="0 0 182.967 289.532" enable-background="new 0 0 182.967 289.532"
	 xml:space="preserve">
<g>
	<rect x="0.747" y="-0.381" fill-rule="evenodd" clip-rule="evenodd" fill="#E5E5E8" width="182.22" height="289.913"/>
	<path fill-rule="evenodd" clip-rule="evenodd" fill="#233974" d="M148.423,68.693c0.096-0.817,0.124-1.617,0.113-2.411
		c0.528-0.235,0.938-0.721,0.947-1.473c0.042-3.658,0.754-7.257,0.8-10.89c0.012-1.1-0.373-2.141-1.081-2.757
		c-0.046-0.492-0.088-0.98-0.143-1.47c-0.125-1.131-1.056-1.682-1.915-1.628c-0.786-0.978-2.619-0.968-2.971,0.539
		c-1.093,4.694-3.423,9.716-3.096,14.582c0.088,1.326,1.768,2.204,2.74,1.394c-0.256,0.813-0.547,1.617-0.884,2.411
		c-0.637,1.487,0.832,2.822,1.974,2.572c0.266,0.39,0.683,0.685,1.257,0.756c0.188,0.025,0.377,0.046,0.563,0.071
		C147.721,70.513,148.326,69.518,148.423,68.693z"/>
	<path fill-rule="evenodd" clip-rule="evenodd" fill="#FFCB1E" d="M88.175,199.256c0,20.622,0.013,41.242-0.006,61.864
		c-0.006,7.971-4.504,12.701-12.523,12.753c-17.371,0.113-34.744,0.104-52.118,0c-6.783-0.04-11.032-3.853-12.188-10.545
		c-0.289-1.657-0.373-3.369-0.373-5.053c-0.021-39.547-0.023-79.098-0.01-118.645c0-11.499,4.359-15.869,15.852-15.884
		c15.678-0.021,31.356,0,47.034-0.006c5.004-0.002,9.779,0.819,12.414,5.616c1.159,2.111,1.823,4.772,1.841,7.189
		C88.233,157.446,88.175,178.351,88.175,199.256z M81.349,246.82c0-32.07,0-63.891,0-95.953c-21.238,0-42.19,0-63.204,0
		c0,32.16,0,64.09,0,95.953C39.364,246.82,60.214,246.82,81.349,246.82z M49.87,144.586c4.02-0.061,6.856-2.991,6.746-6.967
		c-0.107-3.93-3.161-6.75-7.146-6.603c-3.729,0.138-6.591,3.092-6.595,6.808C42.875,141.708,45.917,144.649,49.87,144.586z
		 M42.856,260.321c4.883,0,9.19,0,13.899,0C54.068,257.569,45.609,257.537,42.856,260.321z"/>
	<path fill-rule="evenodd" clip-rule="evenodd" fill="#233974" d="M86.375,20.209c20.339,0,40.68-0.008,61.017,0.006
		c8.876,0.006,13.305,4.391,13.319,13.229c0.021,16.524,0.027,33.053-0.004,49.575c-0.017,8.623-4.447,13.053-13.049,13.053
		c-40.961,0.019-81.922,0.019-122.883,0c-8.77,0-12.93-4.167-12.953-12.982c-0.038-16.669-0.038-33.335,0.002-50.002
		c0.021-8.696,4.309-12.867,13.11-12.873C45.414,20.203,65.896,20.209,86.375,20.209z M37.802,90.153
		c1.152,0.167,1.973,0.39,2.798,0.392c30.212,0.019,60.429-0.036,90.643,0.088c3.601,0.015,3.723-1.802,3.716-4.477
		c-0.052-18.636-0.136-37.274,0.061-55.908c0.04-3.867-1.28-4.682-4.865-4.665c-29.225,0.125-58.453,0.157-87.678-0.029
		c-4.278-0.027-5.187,1.483-5.158,5.356c0.155,18.072,0.057,36.145,0.086,54.217C37.409,86.784,37.659,88.439,37.802,90.153z
		 M32.522,58.242c0.021-4.05-3.542-7.711-7.47-7.669c-3.976,0.042-7.567,3.752-7.468,7.717c0.094,3.832,3.513,7.299,7.315,7.414
		C28.9,65.825,32.501,62.3,32.522,58.242z M144.241,57.498c0.243,0.113,0.486,0.227,0.733,0.344
		c0.084,1.816,0.013,3.664,0.329,5.438c0.132,0.758,1.074,1.37,1.648,2.044c0.58-0.687,1.54-1.307,1.672-2.074
		c0.306-1.779,0.473-3.662,0.222-5.432c-0.327-2.311-1.114-4.561-1.703-6.835C146.177,53.156,145.209,55.326,144.241,57.498z"/>
	<path fill-rule="evenodd" clip-rule="evenodd" fill="#233974" d="M114.668,154.348c-7.644-7.694-15.047-15.142-22.316-22.463
		c7.03-6.896,14.434-14.155,22.099-21.671c0,4.031,0,8.25,0,12.821c13.694-1.037,20.993-8.316,23.781-20.71
		c5.972,0,11.725,0,17.928,0c-0.578,11.723-5.39,21.184-13.917,28.739c-7.047,6.249-15.374,9.779-24.88,10.112
		c-2.3,0.08-2.826,1.085-2.732,3.174C114.78,147.661,114.668,150.988,114.668,154.348z"/>
	<path fill-rule="evenodd" clip-rule="evenodd" fill="#FFFFFF" d="M81.349,246.82c-21.135,0-41.985,0-63.204,0
		c0-31.863,0-63.793,0-95.953c21.014,0,41.966,0,63.204,0C81.349,182.928,81.349,214.749,81.349,246.82z"/>
	<path fill-rule="evenodd" clip-rule="evenodd" fill="#FFFFFF" d="M49.87,144.586c-3.953,0.063-6.995-2.878-6.995-6.762
		c0.004-3.716,2.866-6.67,6.595-6.808c3.984-0.146,7.039,2.673,7.146,6.603C56.726,141.594,53.89,144.525,49.87,144.586z"/>
	<path fill-rule="evenodd" clip-rule="evenodd" fill="#FFFFFF" d="M42.856,260.321c2.753-2.784,11.212-2.752,13.899,0
		C52.047,260.321,47.74,260.321,42.856,260.321z"/>
	<path fill-rule="evenodd" clip-rule="evenodd" fill="#FFFFFF" d="M37.802,90.209c-0.143-1.711-0.392-3.371-0.396-5.027
		c-0.029-18.073,0.069-36.145-0.086-54.215c-0.029-3.875,0.88-5.384,5.158-5.359c29.225,0.189,58.453,0.155,87.678,0.03
		c3.584-0.017,4.904,0.798,4.865,4.665c-0.197,18.632-0.113,37.274-0.061,55.91c0.006,2.675-0.115,4.487-3.716,4.475
		c-30.214-0.12-60.431-0.069-90.643-0.09C39.775,90.597,38.953,90.375,37.802,90.209z"/>
	<path fill-rule="evenodd" clip-rule="evenodd" fill="#FFFFFF" d="M32.522,58.242c-0.021,4.058-3.622,7.583-7.623,7.462
		c-3.802-0.115-7.221-3.583-7.315-7.414c-0.099-3.965,3.492-7.676,7.468-7.717C28.98,50.531,32.543,54.192,32.522,58.242z"/>
	<path fill-rule="evenodd" clip-rule="evenodd" fill="#FFFFFF" d="M146.63,50.269c3.352,3.312,3.316,13.497,0,16.731
		C146.63,61.332,146.63,56.142,146.63,50.269z"/>
	<g>
		<rect x="125.585" y="148.669" fill-rule="evenodd" clip-rule="evenodd" fill="#CEA217" width="49.016" height="134.281"/>
		<rect x="126.812" y="148.669" fill-rule="evenodd" clip-rule="evenodd" fill="#FFCB1E" width="48.668" height="134.281"/>
		<text transform="matrix(0 1 -1 0 151.1448 156.5007)"><tspan x="0" y="0" fill="#1D1D1B" font-family="'SegoeUI-Semibold'" font-size="11.4675">Draai uw telefoon om </tspan><tspan x="0" y="13.761" fill="#1D1D1B" font-family="'SegoeUI-Semibold'" font-size="11.4675">dit verhaal te lezen.</tspan></text>
	</g>
	
		<rect x="64.591" y="53.86" transform="matrix(-0.7071 0.7071 -0.7071 -0.7071 192.1268 38.0321)" fill-rule="evenodd" clip-rule="evenodd" fill="#233974" width="47.192" height="9.891"/>
	
		<rect x="64.595" y="53.86" transform="matrix(-0.7071 -0.7071 0.7071 -0.7071 108.9631 162.7467)" fill-rule="evenodd" clip-rule="evenodd" fill="#233974" width="47.189" height="9.891"/>
	
		<rect x="29.507" y="185.368" transform="matrix(-0.7071 0.7072 -0.7072 -0.7071 204.6356 295.8532)" fill-rule="evenodd" clip-rule="evenodd" fill="#233974" width="23.062" height="9.888"/>
	
		<rect x="25.974" y="203.328" transform="matrix(-0.7071 -0.7071 0.7071 -0.7071 -62.6527 390.5943)" fill-rule="evenodd" clip-rule="evenodd" fill="#233974" width="47.188" height="9.891"/>
</g>
<g>
	<rect x="0.384" y="-1.867" fill-rule="evenodd" clip-rule="evenodd" fill="#E5E5E8" width="184.072" height="292.86"/>
	<path fill-rule="evenodd" clip-rule="evenodd" fill="#233974" d="M149.56,67.909c0.097-0.825,0.125-1.634,0.114-2.436
		c0.533-0.237,0.948-0.728,0.957-1.488c0.042-3.694,0.762-7.33,0.809-11c0.013-1.111-0.377-2.163-1.092-2.785
		c-0.046-0.498-0.089-0.991-0.144-1.486c-0.127-1.143-1.066-1.699-1.934-1.644c-0.793-0.988-2.645-0.978-3,0.544
		c-1.104,4.742-3.458,9.814-3.128,14.73c0.089,1.339,1.786,2.226,2.768,1.407c-0.258,0.821-0.552,1.634-0.893,2.436
		c-0.643,1.502,0.84,2.851,1.994,2.599c0.269,0.394,0.69,0.692,1.27,0.764c0.19,0.025,0.381,0.046,0.569,0.072
		C148.851,69.748,149.463,68.742,149.56,67.909z"/>
	<path fill-rule="evenodd" clip-rule="evenodd" fill="#FFCB1E" d="M88.699,199.799c0,20.832,0.013,41.661-0.006,62.492
		c-0.006,8.052-4.55,12.831-12.65,12.883c-17.547,0.114-35.097,0.106-52.648,0c-6.852-0.04-11.144-3.892-12.312-10.653
		c-0.292-1.674-0.376-3.402-0.376-5.104c-0.021-39.949-0.023-79.902-0.011-119.851c0-11.615,4.404-16.03,16.013-16.045
		c15.837-0.021,31.675,0,47.512-0.006c5.055-0.002,9.878,0.827,12.54,5.673c1.17,2.133,1.841,4.82,1.86,7.263
		C88.759,157.564,88.699,178.681,88.699,199.799z M81.805,247.846c0-32.396,0-64.541,0-96.929c-21.454,0-42.62,0-63.847,0
		c0,32.487,0,64.742,0,96.929C39.393,247.846,60.455,247.846,81.805,247.846z M50.006,144.573c4.061-0.062,6.926-3.022,6.814-7.038
		c-0.108-3.97-3.193-6.818-7.218-6.67c-3.767,0.14-6.658,3.124-6.662,6.877C42.94,141.666,46.012,144.636,50.006,144.573z
		 M42.921,261.485c4.933,0,9.284,0,14.041,0C54.246,258.704,45.701,258.673,42.921,261.485z"/>
	<path fill-rule="evenodd" clip-rule="evenodd" fill="#233974" d="M86.882,18.932c20.546,0,41.094-0.009,61.638,0.006
		c8.966,0.006,13.439,4.436,13.455,13.364c0.021,16.692,0.027,33.389-0.004,50.079c-0.017,8.71-4.493,13.186-13.182,13.186
		c-41.377,0.019-82.754,0.019-124.132,0c-8.858,0-13.061-4.209-13.084-13.114c-0.038-16.838-0.038-33.674,0.002-50.51
		c0.021-8.784,4.353-12.998,13.243-13.004C45.504,18.926,66.194,18.932,86.882,18.932z M37.814,89.587
		c1.164,0.169,1.994,0.394,2.827,0.396c30.52,0.02,61.043-0.036,91.564,0.089c3.638,0.015,3.76-1.819,3.754-4.522
		c-0.053-18.825-0.138-37.653,0.062-56.476c0.04-3.906-1.293-4.729-4.914-4.713c-29.522,0.127-59.047,0.159-88.57-0.029
		c-4.321-0.028-5.239,1.498-5.21,5.411c0.157,18.256,0.057,36.512,0.087,54.768C37.419,86.184,37.67,87.856,37.814,89.587z
		 M32.482,57.351c0.021-4.091-3.579-7.79-7.546-7.747c-4.017,0.042-7.644,3.79-7.544,7.796c0.095,3.87,3.548,7.373,7.39,7.489
		C28.823,65.011,32.46,61.45,32.482,57.351z M145.337,56.6c0.245,0.114,0.491,0.229,0.74,0.347c0.085,1.835,0.013,3.701,0.333,5.494
		c0.133,0.766,1.085,1.384,1.666,2.065c0.586-0.694,1.555-1.321,1.688-2.095c0.309-1.796,0.478-3.699,0.224-5.487
		c-0.33-2.334-1.125-4.606-1.72-6.905C147.292,52.213,146.314,54.406,145.337,56.6z"/>
	<path fill-rule="evenodd" clip-rule="evenodd" fill="#233974" d="M115.463,154.434c-7.722-7.772-15.201-15.295-22.543-22.691
		c7.102-6.967,14.58-14.299,22.323-21.892c0,4.071,0,8.333,0,12.951c13.833-1.047,21.206-8.401,24.023-20.92
		c6.033,0,11.844,0,18.11,0c-0.584,11.842-5.445,21.398-14.058,29.032c-7.119,6.313-15.53,9.878-25.134,10.214
		c-2.323,0.081-2.854,1.097-2.759,3.206C115.575,147.679,115.463,151.04,115.463,154.434z"/>
	<path fill-rule="evenodd" clip-rule="evenodd" fill="#FFFFFF" d="M81.805,247.846c-21.35,0-42.412,0-63.847,0
		c0-32.187,0-64.441,0-96.929c21.227,0,42.393,0,63.847,0C81.805,183.305,81.805,215.45,81.805,247.846z"/>
	<path fill-rule="evenodd" clip-rule="evenodd" fill="#FFFFFF" d="M50.006,144.573c-3.993,0.063-7.066-2.907-7.066-6.831
		c0.004-3.754,2.895-6.738,6.662-6.877c4.025-0.148,7.11,2.7,7.218,6.67C56.932,141.551,54.066,144.511,50.006,144.573z"/>
	<path fill-rule="evenodd" clip-rule="evenodd" fill="#FFFFFF" d="M42.921,261.485c2.781-2.812,11.326-2.781,14.041,0
		C52.204,261.485,47.853,261.485,42.921,261.485z"/>
	<path fill-rule="evenodd" clip-rule="evenodd" fill="#FFFFFF" d="M37.814,89.644c-0.144-1.729-0.396-3.405-0.4-5.079
		c-0.03-18.256,0.07-36.512-0.087-54.767c-0.029-3.915,0.889-5.438,5.21-5.413c29.523,0.19,59.047,0.157,88.57,0.03
		c3.621-0.017,4.954,0.806,4.914,4.712c-0.199,18.821-0.114,37.653-0.062,56.479c0.006,2.702-0.116,4.533-3.754,4.52
		c-30.521-0.121-61.045-0.07-91.564-0.091C39.808,90.035,38.978,89.811,37.814,89.644z"/>
	<path fill-rule="evenodd" clip-rule="evenodd" fill="#FFFFFF" d="M32.482,57.351c-0.021,4.099-3.659,7.66-7.701,7.538
		c-3.841-0.116-7.294-3.619-7.39-7.489c-0.1-4.006,3.527-7.754,7.544-7.796C28.903,49.562,32.503,53.26,32.482,57.351z"/>
	<path fill-rule="evenodd" clip-rule="evenodd" fill="#FFFFFF" d="M147.749,49.297c3.386,3.346,3.35,13.634,0,16.902
		C147.749,60.472,147.749,55.231,147.749,49.297z"/>
	<g>
		<rect x="126.49" y="148.698" fill-rule="evenodd" clip-rule="evenodd" fill="#CEA217" width="49.514" height="135.646"/>
		<rect x="127.73" y="148.698" fill-rule="evenodd" clip-rule="evenodd" fill="#FFCB1E" width="49.163" height="135.646"/>
		<text transform="matrix(0 1 -1 0 152.3098 156.6062)"><tspan x="0" y="0" fill="#1D1D1B" font-family="'SegoeUI-Semibold'" font-size="11.5841">Draai uw telefoon om </tspan><tspan x="0" y="13.901" fill="#1D1D1B" font-family="'SegoeUI-Semibold'" font-size="11.5841">dit verhaal te lezen.</tspan></text>
	</g>
	
		<rect x="64.876" y="52.925" transform="matrix(-0.7071 0.7071 -0.7071 -0.7071 192.3978 36.1508)" fill-rule="evenodd" clip-rule="evenodd" fill="#233974" width="47.672" height="9.991"/>
	
		<rect x="64.879" y="52.925" transform="matrix(-0.7071 -0.7071 0.7071 -0.7071 110.4855 161.6073)" fill-rule="evenodd" clip-rule="evenodd" fill="#233974" width="47.67" height="9.991"/>
	
		<rect x="29.435" y="185.771" transform="matrix(-0.7071 0.7071 -0.7071 -0.7071 205.0316 296.5953)" fill-rule="evenodd" clip-rule="evenodd" fill="#233974" width="23.297" height="9.988"/>
	
		<rect x="25.867" y="203.912" transform="matrix(-0.7071 -0.7071 0.7071 -0.7071 -62.8757 391.7715)" fill-rule="evenodd" clip-rule="evenodd" fill="#233974" width="47.668" height="9.991"/>
</g>
<rect x="121.263" y="148.698" fill-rule="evenodd" clip-rule="evenodd" fill="#CEA217" width="58.91" height="135.646"/>
<rect x="122.74" y="148.698" fill-rule="evenodd" clip-rule="evenodd" fill="#FFCB1E" width="58.491" height="135.646"/>
<g>
	<path fill="#1D1D1B" d="M165.242,162.486h8.111v2.342c0,2.99-1.318,4.485-3.954,4.485c-1.252,0-2.258-0.415-3.018-1.244
		s-1.14-1.942-1.14-3.337V162.486z M172.211,163.827h-5.832v1.075c0,0.946,0.26,1.683,0.781,2.208
		c0.521,0.526,1.256,0.789,2.206,0.789c1.896,0,2.845-0.982,2.845-2.947V163.827z"/>
	<path fill="#1D1D1B" d="M169.784,174.008c0.125-0.158,0.187-0.387,0.187-0.685c0-0.388-0.175-0.712-0.526-0.973
		s-0.828-0.39-1.431-0.39h-2.771v-1.313h5.792v1.313h-1.193v0.022c0.407,0.128,0.725,0.325,0.953,0.591
		c0.228,0.266,0.342,0.563,0.342,0.891c0,0.238-0.036,0.418-0.107,0.543H169.784z"/>
	<path fill="#1D1D1B" d="M165.242,179.382v-1.272h0.905v-0.022c-0.694-0.4-1.041-0.986-1.041-1.759c0-0.569,0.155-1.015,0.464-1.338
		c0.309-0.322,0.718-0.483,1.228-0.483c1.093,0,1.73,0.629,1.912,1.889l0.243,1.719c0.826,0,1.239-0.392,1.239-1.176
		c0-0.69-0.237-1.313-0.713-1.867h1.148c0.362,0.611,0.543,1.316,0.543,2.116c0,1.463-0.72,2.194-2.161,2.194H165.242z
		 M168.088,178.115l-0.17-1.216c-0.049-0.377-0.141-0.661-0.274-0.852s-0.369-0.286-0.704-0.286c-0.245,0-0.446,0.088-0.602,0.263
		c-0.157,0.175-0.235,0.41-0.235,0.704c0,0.4,0.14,0.731,0.421,0.993c0.281,0.262,0.634,0.393,1.061,0.393H168.088z"/>
	<path fill="#1D1D1B" d="M165.242,185.428v-1.272h0.905v-0.022c-0.694-0.4-1.041-0.986-1.041-1.759c0-0.569,0.155-1.015,0.464-1.338
		c0.309-0.322,0.718-0.483,1.228-0.483c1.093,0,1.73,0.629,1.912,1.889l0.243,1.719c0.826,0,1.239-0.392,1.239-1.176
		c0-0.69-0.237-1.313-0.713-1.867h1.148c0.362,0.611,0.543,1.316,0.543,2.116c0,1.463-0.72,2.194-2.161,2.194H165.242z
		 M168.088,184.161l-0.17-1.216c-0.049-0.377-0.141-0.661-0.274-0.852s-0.369-0.286-0.704-0.286c-0.245,0-0.446,0.088-0.602,0.263
		c-0.157,0.175-0.235,0.41-0.235,0.704c0,0.4,0.14,0.731,0.421,0.993c0.281,0.262,0.634,0.393,1.061,0.393H168.088z"/>
	<path fill="#1D1D1B" d="M165.242,188.342v-1.313h5.792v1.313H165.242z M172.251,187.691c0-0.215,0.07-0.399,0.209-0.552
		c0.14-0.153,0.317-0.229,0.532-0.229s0.394,0.076,0.538,0.229c0.143,0.153,0.215,0.336,0.215,0.552
		c0,0.222-0.072,0.411-0.215,0.565c-0.144,0.155-0.323,0.232-0.538,0.232c-0.204,0-0.378-0.077-0.523-0.232
		C172.323,188.102,172.251,187.913,172.251,187.691z"/>
	<path fill="#1D1D1B" d="M165.242,198.291v-1.313h0.917v-0.022c-0.702-0.381-1.052-0.973-1.052-1.776
		c0-1.369,0.822-2.053,2.466-2.053h3.461v1.312h-3.326c-1.041,0-1.562,0.402-1.562,1.205c0,0.389,0.144,0.708,0.43,0.959
		c0.287,0.25,0.662,0.376,1.125,0.376h3.332v1.313H165.242z"/>
	<path fill="#1D1D1B" d="M171.034,207.788l-5.792-1.708v-1.375l3.925-1.052c0.151-0.042,0.321-0.068,0.509-0.08v-0.022
		c-0.128-0.008-0.294-0.042-0.498-0.102l-3.937-1.143v-1.347l5.792-1.702v1.357l-4.174,1.052c-0.125,0.034-0.291,0.056-0.498,0.068
		v0.04c0.158,0.011,0.328,0.041,0.509,0.09l4.163,1.171v1.233l-4.191,1.041c-0.132,0.034-0.298,0.058-0.498,0.073v0.04
		c0.14,0.008,0.305,0.036,0.498,0.085l4.191,1.029V207.788z"/>
	<path fill="#1D1D1B" d="M165.304,215c-0.128-0.257-0.192-0.594-0.192-1.013c0-1.124,0.539-1.686,1.618-1.686h3.275v-0.967h1.029
		v0.967h1.341l0.373,1.313h-1.714V215h-1.029v-1.386h-2.896c-0.343,0-0.588,0.062-0.735,0.187s-0.221,0.332-0.221,0.622
		c0,0.223,0.064,0.415,0.192,0.577H165.304z"/>
	<path fill="#1D1D1B" d="M167.782,220.967v-3.948c-0.535,0.015-0.948,0.18-1.239,0.495c-0.29,0.314-0.436,0.747-0.436,1.298
		c0,0.619,0.185,1.186,0.555,1.703h-1.058c-0.332-0.528-0.498-1.226-0.498-2.093c0-0.853,0.263-1.521,0.789-2.005
		s1.266-0.727,2.22-0.727c0.901,0,1.635,0.267,2.203,0.8c0.567,0.534,0.851,1.196,0.851,1.988c0,0.792-0.254,1.404-0.764,1.838
		c-0.509,0.434-1.216,0.651-2.121,0.651H167.782z M168.71,219.7c0.471-0.004,0.838-0.115,1.1-0.334s0.393-0.52,0.393-0.905
		c0-0.377-0.138-0.697-0.413-0.959c-0.275-0.262-0.636-0.423-1.081-0.483V219.7z"/>
	<path fill="#1D1D1B" d="M165.242,223.534v-1.318h8.575v1.318H165.242z"/>
	<path fill="#1D1D1B" d="M167.782,230.147v-3.948c-0.535,0.015-0.948,0.18-1.239,0.495c-0.29,0.314-0.436,0.747-0.436,1.298
		c0,0.619,0.185,1.186,0.555,1.703h-1.058c-0.332-0.528-0.498-1.226-0.498-2.093c0-0.853,0.263-1.521,0.789-2.005
		s1.266-0.727,2.22-0.727c0.901,0,1.635,0.267,2.203,0.8c0.567,0.534,0.851,1.196,0.851,1.988c0,0.792-0.254,1.404-0.764,1.838
		c-0.509,0.434-1.216,0.651-2.121,0.651H167.782z M168.71,228.88c0.471-0.004,0.838-0.115,1.1-0.334s0.393-0.52,0.393-0.905
		c0-0.377-0.138-0.697-0.413-0.959c-0.275-0.262-0.636-0.423-1.081-0.483V228.88z"/>
	<path fill="#1D1D1B" d="M172.748,234.672c0.102-0.177,0.153-0.379,0.153-0.605c0-0.637-0.36-0.956-1.081-0.956h-0.786v1.346h-1.029
		v-1.34h-4.763v-1.313h4.763v-0.99h1.029v0.99h0.939c0.611,0,1.093,0.2,1.445,0.6s0.529,0.899,0.529,1.499
		c0,0.324-0.036,0.581-0.107,0.769H172.748z"/>
	<path fill="#1D1D1B" d="M165.107,237.958c0-0.894,0.271-1.607,0.812-2.141s1.259-0.8,2.152-0.8c0.973,0,1.733,0.278,2.279,0.834
		c0.547,0.556,0.82,1.306,0.82,2.249c0,0.905-0.266,1.61-0.797,2.115s-1.269,0.758-2.212,0.758c-0.924,0-1.664-0.272-2.22-0.817
		C165.385,239.611,165.107,238.879,165.107,237.958z M170.124,238.021c0-0.513-0.179-0.918-0.537-1.216
		c-0.358-0.298-0.853-0.447-1.482-0.447c-0.607,0-1.085,0.151-1.434,0.453s-0.523,0.705-0.523,1.21c0,0.517,0.172,0.914,0.515,1.19
		c0.343,0.277,0.831,0.416,1.465,0.416c0.637,0,1.129-0.139,1.476-0.416C169.95,238.934,170.124,238.537,170.124,238.021z"/>
	<path fill="#1D1D1B" d="M165.107,244.876c0-0.894,0.271-1.607,0.812-2.141s1.259-0.8,2.152-0.8c0.973,0,1.733,0.278,2.279,0.834
		c0.547,0.556,0.82,1.306,0.82,2.249c0,0.905-0.266,1.61-0.797,2.115s-1.269,0.758-2.212,0.758c-0.924,0-1.664-0.272-2.22-0.817
		C165.385,246.529,165.107,245.796,165.107,244.876z M170.124,244.938c0-0.513-0.179-0.918-0.537-1.216
		c-0.358-0.298-0.853-0.447-1.482-0.447c-0.607,0-1.085,0.151-1.434,0.453s-0.523,0.705-0.523,1.21c0,0.517,0.172,0.914,0.515,1.19
		c0.343,0.277,0.831,0.416,1.465,0.416c0.637,0,1.129-0.139,1.476-0.416C169.95,245.852,170.124,245.455,170.124,244.938z"/>
	<path fill="#1D1D1B" d="M165.242,254.384v-1.313h3.264c1.082,0,1.624-0.383,1.624-1.148c0-0.4-0.15-0.73-0.45-0.99
		c-0.3-0.26-0.678-0.391-1.134-0.391h-3.303v-1.318h5.792v1.318h-0.961v0.023c0.731,0.434,1.097,1.06,1.097,1.878
		c0,0.629-0.205,1.11-0.614,1.442c-0.409,0.332-1,0.498-1.773,0.498H165.242z"/>
	<path fill="#1D1D1B" d="M165.107,261.737c0-0.894,0.271-1.607,0.812-2.141s1.259-0.8,2.152-0.8c0.973,0,1.733,0.278,2.279,0.834
		c0.547,0.556,0.82,1.306,0.82,2.249c0,0.905-0.266,1.61-0.797,2.115s-1.269,0.758-2.212,0.758c-0.924,0-1.664-0.272-2.22-0.817
		C165.385,263.39,165.107,262.657,165.107,261.737z M170.124,261.8c0-0.513-0.179-0.918-0.537-1.216
		c-0.358-0.298-0.853-0.447-1.482-0.447c-0.607,0-1.085,0.151-1.434,0.453s-0.523,0.705-0.523,1.21c0,0.517,0.172,0.914,0.515,1.19
		c0.343,0.277,0.831,0.416,1.465,0.416c0.637,0,1.129-0.139,1.476-0.416C169.95,262.713,170.124,262.316,170.124,261.8z"/>
	<path fill="#1D1D1B" d="M165.242,274.746v-1.312h3.156c0.607,0,1.046-0.086,1.318-0.257c0.271-0.172,0.407-0.461,0.407-0.868
		c0-0.343-0.171-0.635-0.515-0.874c-0.343-0.24-0.754-0.359-1.233-0.359h-3.134v-1.318h3.264c1.079,0,1.618-0.381,1.618-1.143
		c0-0.354-0.162-0.646-0.486-0.874c-0.324-0.229-0.745-0.342-1.261-0.342h-3.134v-1.313h5.792v1.313h-0.917v0.022
		c0.702,0.418,1.052,1.027,1.052,1.827c0,0.399-0.11,0.75-0.331,1.049c-0.22,0.3-0.51,0.504-0.868,0.613
		c0.799,0.43,1.199,1.071,1.199,1.923c0,1.274-0.786,1.912-2.358,1.912H165.242z"/>
	<path fill="#1D1D1B" d="M151.342,167.605v-1.313h0.984v-0.022c-0.747-0.422-1.12-1.073-1.12-1.951c0-0.713,0.259-1.283,0.778-1.711
		c0.519-0.428,1.225-0.642,2.118-0.642c0.958,0,1.725,0.236,2.302,0.709c0.577,0.474,0.865,1.104,0.865,1.892
		c0,0.781-0.313,1.348-0.939,1.703v0.022h3.586v1.313H151.342z M153.989,166.31h0.758c0.411,0,0.76-0.134,1.046-0.401
		c0.286-0.268,0.43-0.609,0.43-1.024c0-0.49-0.183-0.876-0.549-1.157s-0.873-0.421-1.521-0.421c-0.588,0-1.053,0.135-1.394,0.404
		s-0.512,0.633-0.512,1.089c0,0.449,0.165,0.813,0.495,1.092C153.072,166.17,153.487,166.31,153.989,166.31z"/>
	<path fill="#1D1D1B" d="M151.342,170.632v-1.313h5.792v1.313H151.342z M158.35,169.981c0-0.215,0.07-0.399,0.209-0.552
		c0.14-0.153,0.317-0.229,0.532-0.229s0.394,0.076,0.538,0.229c0.143,0.153,0.215,0.336,0.215,0.552
		c0,0.222-0.072,0.411-0.215,0.565c-0.144,0.155-0.323,0.232-0.538,0.232c-0.204,0-0.378-0.077-0.523-0.232
		C158.422,170.392,158.35,170.203,158.35,169.981z"/>
	<path fill="#1D1D1B" d="M151.404,175.4c-0.128-0.257-0.192-0.594-0.192-1.013c0-1.124,0.539-1.686,1.618-1.686h3.275v-0.967h1.029
		v0.967h1.341l0.373,1.313h-1.714v1.386h-1.029v-1.386h-2.896c-0.343,0-0.588,0.062-0.735,0.187s-0.221,0.332-0.221,0.622
		c0,0.223,0.064,0.415,0.192,0.577H151.404z"/>
	<path fill="#1D1D1B" d="M157.134,184.704l-5.792-2.24v-1.42l5.792-2.132v1.425l-4.05,1.284c-0.298,0.098-0.558,0.158-0.781,0.181
		v0.017c0.279,0.034,0.532,0.087,0.758,0.159l4.072,1.346V184.704z"/>
	<path fill="#1D1D1B" d="M153.881,190.406v-3.948c-0.535,0.015-0.948,0.18-1.239,0.495c-0.29,0.314-0.436,0.747-0.436,1.298
		c0,0.619,0.185,1.186,0.555,1.703h-1.058c-0.332-0.528-0.498-1.226-0.498-2.093c0-0.853,0.263-1.521,0.789-2.005
		s1.266-0.727,2.22-0.727c0.901,0,1.635,0.267,2.203,0.8c0.567,0.534,0.851,1.196,0.851,1.988c0,0.792-0.254,1.404-0.764,1.838
		c-0.509,0.434-1.216,0.651-2.121,0.651H153.881z M154.809,189.139c0.471-0.004,0.838-0.115,1.1-0.334s0.393-0.52,0.393-0.905
		c0-0.377-0.138-0.697-0.413-0.959c-0.275-0.262-0.636-0.423-1.081-0.483V189.139z"/>
	<path fill="#1D1D1B" d="M155.884,195.015c0.125-0.158,0.187-0.387,0.187-0.685c0-0.388-0.175-0.712-0.526-0.973
		s-0.828-0.39-1.431-0.39h-2.771v-1.313h5.792v1.313h-1.193v0.022c0.407,0.128,0.725,0.325,0.953,0.591
		c0.228,0.266,0.342,0.563,0.342,0.891c0,0.238-0.036,0.418-0.107,0.543H155.884z"/>
	<path fill="#1D1D1B" d="M151.342,201.091v-1.313h3.167c1.146,0,1.72-0.383,1.72-1.148c0-0.385-0.166-0.709-0.498-0.973
		c-0.332-0.264-0.756-0.396-1.272-0.396h-3.117v-1.318h8.575v1.318h-3.745v0.023c0.731,0.437,1.097,1.063,1.097,1.878
		c0,1.286-0.786,1.929-2.358,1.929H151.342z"/>
	<path fill="#1D1D1B" d="M151.342,207.131v-1.272h0.905v-0.022c-0.694-0.4-1.041-0.986-1.041-1.759c0-0.569,0.155-1.015,0.464-1.338
		c0.309-0.322,0.718-0.483,1.228-0.483c1.093,0,1.73,0.629,1.912,1.889l0.243,1.719c0.826,0,1.239-0.392,1.239-1.176
		c0-0.69-0.237-1.313-0.713-1.867h1.148c0.362,0.611,0.543,1.316,0.543,2.116c0,1.463-0.72,2.194-2.161,2.194H151.342z
		 M154.187,205.864l-0.17-1.216c-0.049-0.377-0.141-0.661-0.274-0.852s-0.369-0.286-0.704-0.286c-0.245,0-0.446,0.088-0.602,0.263
		c-0.157,0.175-0.235,0.41-0.235,0.704c0,0.4,0.14,0.731,0.421,0.993c0.281,0.262,0.634,0.393,1.061,0.393H154.187z"/>
	<path fill="#1D1D1B" d="M151.342,213.178v-1.272h0.905v-0.022c-0.694-0.4-1.041-0.986-1.041-1.759c0-0.569,0.155-1.015,0.464-1.338
		c0.309-0.322,0.718-0.483,1.228-0.483c1.093,0,1.73,0.629,1.912,1.889l0.243,1.719c0.826,0,1.239-0.392,1.239-1.176
		c0-0.69-0.237-1.313-0.713-1.867h1.148c0.362,0.611,0.543,1.316,0.543,2.116c0,1.463-0.72,2.194-2.161,2.194H151.342z
		 M154.187,211.911l-0.17-1.216c-0.049-0.377-0.141-0.661-0.274-0.852s-0.369-0.286-0.704-0.286c-0.245,0-0.446,0.088-0.602,0.263
		c-0.157,0.175-0.235,0.41-0.235,0.704c0,0.4,0.14,0.731,0.421,0.993c0.281,0.262,0.634,0.393,1.061,0.393H154.187z"/>
	<path fill="#1D1D1B" d="M151.342,216.096v-1.318h8.575v1.318H151.342z"/>
	<path fill="#1D1D1B" d="M151.404,224.044c-0.128-0.257-0.192-0.594-0.192-1.013c0-1.124,0.539-1.686,1.618-1.686h3.275v-0.967
		h1.029v0.967h1.341l0.373,1.313h-1.714v1.386h-1.029v-1.386h-2.896c-0.343,0-0.588,0.062-0.735,0.187s-0.221,0.332-0.221,0.622
		c0,0.223,0.064,0.415,0.192,0.577H151.404z"/>
	<path fill="#1D1D1B" d="M153.881,230.011v-3.948c-0.535,0.015-0.948,0.18-1.239,0.495c-0.29,0.314-0.436,0.747-0.436,1.298
		c0,0.619,0.185,1.186,0.555,1.703h-1.058c-0.332-0.528-0.498-1.226-0.498-2.093c0-0.853,0.263-1.521,0.789-2.005
		s1.266-0.727,2.22-0.727c0.901,0,1.635,0.267,2.203,0.8c0.567,0.534,0.851,1.196,0.851,1.988c0,0.792-0.254,1.404-0.764,1.838
		c-0.509,0.434-1.216,0.651-2.121,0.651H153.881z M154.809,228.744c0.471-0.004,0.838-0.115,1.1-0.334s0.393-0.52,0.393-0.905
		c0-0.377-0.138-0.697-0.413-0.959c-0.275-0.262-0.636-0.423-1.081-0.483V228.744z"/>
	<path fill="#1D1D1B" d="M151.342,235.763v-1.318h8.575v1.318H151.342z"/>
	<path fill="#1D1D1B" d="M153.881,242.376v-3.948c-0.535,0.015-0.948,0.18-1.239,0.495c-0.29,0.314-0.436,0.747-0.436,1.298
		c0,0.619,0.185,1.186,0.555,1.703h-1.058c-0.332-0.528-0.498-1.226-0.498-2.093c0-0.853,0.263-1.521,0.789-2.005
		s1.266-0.727,2.22-0.727c0.901,0,1.635,0.267,2.203,0.8c0.567,0.534,0.851,1.196,0.851,1.988c0,0.792-0.254,1.404-0.764,1.838
		c-0.509,0.434-1.216,0.651-2.121,0.651H153.881z M154.809,241.109c0.471-0.004,0.838-0.115,1.1-0.334s0.393-0.52,0.393-0.905
		c0-0.377-0.138-0.697-0.413-0.959c-0.275-0.262-0.636-0.423-1.081-0.483V241.109z"/>
	<path fill="#1D1D1B" d="M156.585,247.902l-4.219-3.128v3.117h-1.024v-4.955h0.492l4.276,3.196v-2.891h1.024v4.661H156.585z"/>
	<path fill="#1D1D1B" d="M153.881,253.909v-3.948c-0.535,0.015-0.948,0.18-1.239,0.495c-0.29,0.314-0.436,0.747-0.436,1.298
		c0,0.619,0.185,1.186,0.555,1.703h-1.058c-0.332-0.528-0.498-1.226-0.498-2.093c0-0.853,0.263-1.521,0.789-2.005
		s1.266-0.727,2.22-0.727c0.901,0,1.635,0.267,2.203,0.8c0.567,0.534,0.851,1.196,0.851,1.988c0,0.792-0.254,1.404-0.764,1.838
		c-0.509,0.434-1.216,0.651-2.121,0.651H153.881z M154.809,252.642c0.471-0.004,0.838-0.115,1.1-0.334s0.393-0.52,0.393-0.905
		c0-0.377-0.138-0.697-0.413-0.959c-0.275-0.262-0.636-0.423-1.081-0.483V252.642z"/>
	<path fill="#1D1D1B" d="M151.342,260.318v-1.313h3.264c1.082,0,1.624-0.383,1.624-1.148c0-0.4-0.15-0.73-0.45-0.99
		c-0.3-0.26-0.678-0.391-1.134-0.391h-3.303v-1.318h5.792v1.318h-0.961v0.023c0.731,0.434,1.097,1.06,1.097,1.878
		c0,0.629-0.205,1.11-0.614,1.442c-0.409,0.332-1,0.498-1.773,0.498H151.342z"/>
	<path fill="#1D1D1B" d="M151.217,262.461c0-0.226,0.075-0.418,0.224-0.577c0.149-0.159,0.327-0.238,0.534-0.238
		c0.211,0,0.393,0.079,0.543,0.238c0.151,0.158,0.227,0.351,0.227,0.577c0,0.23-0.076,0.425-0.227,0.585
		c-0.15,0.16-0.332,0.241-0.543,0.241c-0.207,0-0.385-0.081-0.534-0.241S151.217,262.691,151.217,262.461z"/>
	<path fill="#1D1D1B" d="M139.56,164.279v-0.83c0.999-0.892,2.23-1.337,3.695-1.337c1.47,0,2.722,0.446,3.754,1.337v0.833
		c-1.072-0.875-2.321-1.312-3.746-1.312C141.85,162.97,140.616,163.406,139.56,164.279z"/>
	<path fill="#1D1D1B" d="M140.94,169.988v-1.012h2.632v-2.857h-2.632v-1.007h6.069v1.007h-2.552v2.857h2.552v1.012H140.94z"/>
	<path fill="#1D1D1B" d="M140.94,172.358v-0.982h4.334v0.982H140.94z M146.184,171.871c0-0.161,0.052-0.298,0.157-0.413
		s0.237-0.171,0.398-0.171s0.295,0.057,0.402,0.171c0.107,0.114,0.161,0.252,0.161,0.413c0,0.167-0.054,0.308-0.161,0.423
		c-0.107,0.116-0.241,0.173-0.402,0.173c-0.152,0-0.283-0.058-0.392-0.173S146.184,172.038,146.184,171.871z"/>
	<path fill="#1D1D1B" d="M142.841,177.31v-2.954c-0.401,0.011-0.71,0.135-0.927,0.37c-0.217,0.236-0.326,0.56-0.326,0.971
		c0,0.463,0.138,0.888,0.415,1.274h-0.792c-0.249-0.395-0.373-0.917-0.373-1.566c0-0.638,0.197-1.138,0.59-1.5
		c0.394-0.363,0.947-0.544,1.661-0.544c0.674,0,1.224,0.2,1.648,0.599c0.425,0.399,0.637,0.895,0.637,1.488
		c0,0.592-0.19,1.051-0.571,1.375c-0.381,0.324-0.91,0.487-1.587,0.487H142.841z M143.534,176.362
		c0.353-0.003,0.627-0.086,0.823-0.25c0.196-0.164,0.294-0.39,0.294-0.677c0-0.282-0.103-0.521-0.309-0.717
		c-0.206-0.196-0.476-0.317-0.809-0.362V176.362z"/>
	<path fill="#1D1D1B" d="M144.339,180.76c0.093-0.119,0.14-0.29,0.14-0.512c0-0.291-0.131-0.533-0.394-0.728
		c-0.262-0.195-0.619-0.292-1.071-0.292h-2.074v-0.982h4.334v0.982h-0.893v0.017c0.305,0.096,0.542,0.244,0.713,0.442
		c0.171,0.199,0.256,0.421,0.256,0.667c0,0.178-0.027,0.313-0.081,0.407H144.339z"/>
	<path fill="#1D1D1B" d="M145.274,185.533l-4.334-1.676v-1.062l4.334-1.596v1.066l-3.03,0.961c-0.223,0.073-0.418,0.119-0.584,0.135
		v0.013c0.208,0.025,0.397,0.065,0.567,0.119l3.047,1.007V185.533z"/>
	<path fill="#1D1D1B" d="M140.839,188.052c0-0.668,0.203-1.203,0.607-1.602c0.405-0.399,0.941-0.599,1.61-0.599
		c0.728,0,1.296,0.208,1.706,0.624c0.409,0.417,0.614,0.977,0.614,1.683c0,0.677-0.199,1.205-0.597,1.583
		c-0.398,0.378-0.95,0.567-1.655,0.567c-0.691,0-1.245-0.204-1.662-0.612C141.047,189.288,140.839,188.74,140.839,188.052z
		 M144.593,188.098c0-0.384-0.134-0.687-0.402-0.91c-0.268-0.223-0.638-0.334-1.109-0.334c-0.455,0-0.812,0.113-1.073,0.338
		c-0.261,0.226-0.392,0.528-0.392,0.906c0,0.387,0.128,0.684,0.385,0.891c0.256,0.208,0.622,0.311,1.096,0.311
		c0.477,0,0.845-0.104,1.104-0.311C144.463,188.781,144.593,188.485,144.593,188.098z"/>
	<path fill="#1D1D1B" d="M140.839,193.227c0-0.668,0.203-1.203,0.607-1.602c0.405-0.399,0.941-0.599,1.61-0.599
		c0.728,0,1.296,0.208,1.706,0.624c0.409,0.417,0.614,0.977,0.614,1.683c0,0.677-0.199,1.205-0.597,1.583
		c-0.398,0.378-0.95,0.567-1.655,0.567c-0.691,0-1.245-0.204-1.662-0.612C141.047,194.464,140.839,193.916,140.839,193.227z
		 M144.593,193.274c0-0.384-0.134-0.687-0.402-0.91c-0.268-0.223-0.638-0.334-1.109-0.334c-0.455,0-0.812,0.113-1.073,0.338
		c-0.261,0.226-0.392,0.528-0.392,0.906c0,0.387,0.128,0.684,0.385,0.891c0.256,0.208,0.622,0.311,1.096,0.311
		c0.477,0,0.845-0.104,1.104-0.311C144.463,193.957,144.593,193.66,144.593,193.274z"/>
	<path fill="#1D1D1B" d="M144.339,198.996c0.093-0.119,0.14-0.29,0.14-0.512c0-0.291-0.131-0.533-0.394-0.728
		c-0.262-0.195-0.619-0.292-1.071-0.292h-2.074v-0.982h4.334v0.982h-0.893v0.017c0.305,0.096,0.542,0.244,0.713,0.442
		c0.171,0.199,0.256,0.421,0.256,0.667c0,0.178-0.027,0.313-0.081,0.407H144.339z"/>
	<path fill="#1D1D1B" d="M140.94,208.552v-0.982h2.362c0.454,0,0.783-0.064,0.986-0.192s0.305-0.345,0.305-0.65
		c0-0.256-0.128-0.475-0.385-0.654c-0.257-0.179-0.564-0.269-0.923-0.269h-2.345v-0.986h2.442c0.807,0,1.21-0.285,1.21-0.855
		c0-0.265-0.121-0.483-0.364-0.654s-0.557-0.256-0.944-0.256h-2.345v-0.982h4.334v0.982h-0.686v0.017
		c0.524,0.313,0.787,0.769,0.787,1.367c0,0.299-0.083,0.561-0.248,0.785s-0.382,0.377-0.65,0.459
		c0.598,0.322,0.897,0.802,0.897,1.439c0,0.954-0.588,1.43-1.765,1.43H140.94z"/>
	<path fill="#1D1D1B" d="M140.839,211.672c0-0.668,0.203-1.203,0.607-1.602c0.405-0.399,0.941-0.599,1.61-0.599
		c0.728,0,1.296,0.208,1.706,0.624c0.409,0.417,0.614,0.977,0.614,1.683c0,0.677-0.199,1.205-0.597,1.583
		c-0.398,0.378-0.95,0.567-1.655,0.567c-0.691,0-1.245-0.204-1.662-0.612C141.047,212.908,140.839,212.361,140.839,211.672z
		 M144.593,211.719c0-0.384-0.134-0.687-0.402-0.91c-0.268-0.223-0.638-0.334-1.109-0.334c-0.455,0-0.812,0.113-1.073,0.338
		c-0.261,0.226-0.392,0.528-0.392,0.906c0,0.387,0.128,0.684,0.385,0.891c0.256,0.208,0.622,0.311,1.096,0.311
		c0.477,0,0.845-0.104,1.104-0.311C144.463,212.402,144.593,212.105,144.593,211.719z"/>
	<path fill="#1D1D1B" d="M142.841,218.596v-2.954c-0.401,0.011-0.71,0.135-0.927,0.37c-0.217,0.236-0.326,0.56-0.326,0.971
		c0,0.463,0.138,0.888,0.415,1.274h-0.792c-0.249-0.395-0.373-0.917-0.373-1.566c0-0.638,0.197-1.138,0.59-1.5
		c0.394-0.363,0.947-0.544,1.661-0.544c0.674,0,1.224,0.2,1.648,0.599c0.425,0.399,0.637,0.895,0.637,1.488
		c0,0.592-0.19,1.051-0.571,1.375c-0.381,0.324-0.91,0.487-1.587,0.487H142.841z M143.534,217.648
		c0.353-0.003,0.627-0.086,0.823-0.25c0.196-0.164,0.294-0.39,0.294-0.677c0-0.282-0.103-0.521-0.309-0.717
		c-0.206-0.196-0.476-0.317-0.809-0.362V217.648z"/>
	<path fill="#1D1D1B" d="M140.987,221.817c-0.096-0.192-0.144-0.444-0.144-0.757c0-0.841,0.403-1.261,1.21-1.261h2.45v-0.724h0.771
		v0.724h1.003l0.279,0.982h-1.282v1.037h-0.771v-1.037h-2.167c-0.257,0-0.44,0.046-0.55,0.14c-0.11,0.093-0.165,0.248-0.165,0.465
		c0,0.167,0.048,0.311,0.144,0.432H140.987z"/>
	<path fill="#1D1D1B" d="M140.94,226.032v-0.986h6.416v0.986H140.94z"/>
	<path fill="#1D1D1B" d="M140.94,230.637v-0.953h0.677v-0.017c-0.519-0.299-0.779-0.738-0.779-1.316c0-0.426,0.116-0.76,0.347-1.001
		c0.231-0.241,0.538-0.362,0.918-0.362c0.818,0,1.295,0.471,1.43,1.414l0.182,1.287c0.618,0,0.927-0.293,0.927-0.88
		c0-0.516-0.178-0.982-0.533-1.396h0.859c0.271,0.457,0.406,0.984,0.406,1.583c0,1.095-0.539,1.642-1.617,1.642H140.94z
		 M143.069,229.689l-0.127-0.91c-0.037-0.282-0.105-0.495-0.206-0.637c-0.1-0.143-0.275-0.214-0.527-0.214
		c-0.183,0-0.333,0.066-0.451,0.197c-0.117,0.131-0.175,0.307-0.175,0.527c0,0.299,0.105,0.546,0.315,0.743
		c0.21,0.196,0.475,0.294,0.793,0.294H143.069z"/>
	<path fill="#1D1D1B" d="M140.94,235.695v-0.982h2.442c0.81,0,1.215-0.287,1.215-0.859c0-0.299-0.112-0.546-0.336-0.74
		c-0.225-0.195-0.507-0.292-0.849-0.292h-2.472v-0.986h4.334v0.986h-0.72v0.017c0.547,0.325,0.821,0.793,0.821,1.405
		c0,0.471-0.153,0.831-0.459,1.079c-0.306,0.249-0.748,0.373-1.327,0.373H140.94z"/>
	<path fill="#1D1D1B" d="M140.94,240.833v-0.982h0.736v-0.017c-0.559-0.316-0.838-0.803-0.838-1.46c0-0.534,0.194-0.96,0.582-1.28
		c0.388-0.32,0.916-0.48,1.585-0.48c0.717,0,1.291,0.177,1.723,0.531c0.432,0.354,0.647,0.826,0.647,1.416
		c0,0.584-0.234,1.009-0.703,1.274v0.017h2.683v0.982H140.94z M142.921,239.864h0.567c0.308,0,0.568-0.101,0.783-0.301
		c0.214-0.2,0.321-0.456,0.321-0.766c0-0.367-0.137-0.655-0.41-0.865c-0.274-0.21-0.653-0.315-1.139-0.315
		c-0.44,0-0.788,0.101-1.043,0.303s-0.383,0.473-0.383,0.814c0,0.336,0.124,0.608,0.37,0.817
		C142.235,239.759,142.546,239.864,142.921,239.864z"/>
	<path fill="#1D1D1B" d="M141.075,241.844h0.91c-0.279,0.367-0.419,0.771-0.419,1.215c0,0.592,0.175,0.889,0.525,0.889
		c0.099,0,0.183-0.025,0.251-0.076c0.069-0.051,0.131-0.119,0.184-0.205c0.054-0.086,0.102-0.188,0.144-0.305
		c0.042-0.117,0.09-0.248,0.144-0.392c0.07-0.178,0.145-0.338,0.224-0.48s0.168-0.261,0.269-0.355c0.1-0.095,0.213-0.166,0.34-0.214
		s0.275-0.072,0.445-0.072c0.208,0,0.393,0.049,0.552,0.148c0.159,0.099,0.293,0.231,0.402,0.398s0.19,0.355,0.246,0.567
		c0.055,0.212,0.083,0.431,0.083,0.656c0,0.4-0.061,0.759-0.182,1.075h-0.859c0.208-0.305,0.313-0.655,0.313-1.05
		c0-0.124-0.013-0.236-0.038-0.336s-0.061-0.186-0.106-0.256c-0.045-0.07-0.099-0.125-0.163-0.165s-0.133-0.059-0.209-0.059
		c-0.093,0-0.172,0.02-0.237,0.059s-0.122,0.098-0.171,0.176s-0.095,0.171-0.135,0.279c-0.041,0.109-0.085,0.233-0.133,0.375
		c-0.076,0.187-0.154,0.354-0.233,0.501c-0.079,0.148-0.168,0.274-0.269,0.379c-0.101,0.104-0.216,0.185-0.347,0.241
		c-0.131,0.057-0.287,0.085-0.468,0.085c-0.22,0-0.412-0.051-0.576-0.152s-0.299-0.237-0.406-0.407
		c-0.107-0.169-0.187-0.364-0.239-0.586s-0.078-0.455-0.078-0.701C140.839,242.602,140.918,242.191,141.075,241.844z"/>
	<path fill="#1D1D1B" d="M141.139,248.954c-0.2-0.347-0.3-0.757-0.3-1.231c0-0.643,0.201-1.163,0.603-1.558
		c0.402-0.395,0.923-0.592,1.564-0.592c0.714,0,1.287,0.212,1.72,0.637c0.433,0.425,0.65,0.993,0.65,1.704
		c0,0.395-0.069,0.744-0.208,1.045h-0.914c0.226-0.302,0.338-0.624,0.338-0.965c0-0.415-0.14-0.755-0.421-1.02
		s-0.648-0.398-1.103-0.398c-0.449,0-0.803,0.125-1.063,0.375c-0.259,0.25-0.389,0.585-0.389,1.005c0,0.353,0.125,0.686,0.376,0.999
		H141.139z"/>
	<path fill="#1D1D1B" d="M140.94,253.255v-0.953h0.677v-0.017c-0.519-0.299-0.779-0.738-0.779-1.316c0-0.426,0.116-0.76,0.347-1.001
		c0.231-0.241,0.538-0.362,0.918-0.362c0.818,0,1.295,0.471,1.43,1.414l0.182,1.287c0.618,0,0.927-0.293,0.927-0.88
		c0-0.516-0.178-0.982-0.533-1.396h0.859c0.271,0.457,0.406,0.984,0.406,1.583c0,1.095-0.539,1.642-1.617,1.642H140.94z
		 M143.069,252.306l-0.127-0.91c-0.037-0.282-0.105-0.495-0.206-0.637c-0.1-0.143-0.275-0.214-0.527-0.214
		c-0.183,0-0.333,0.066-0.451,0.197c-0.117,0.131-0.175,0.307-0.175,0.527c0,0.299,0.105,0.546,0.315,0.743
		c0.21,0.196,0.475,0.294,0.793,0.294H143.069z"/>
	<path fill="#1D1D1B" d="M141.579,255.451v-0.017h-2.633v-0.982h6.328v0.982h-0.762v0.017c0.575,0.336,0.863,0.827,0.863,1.473
		c0,0.55-0.193,0.979-0.58,1.287c-0.386,0.308-0.906,0.461-1.557,0.461c-0.723,0-1.301-0.174-1.735-0.521
		c-0.435-0.347-0.652-0.821-0.652-1.422C140.851,256.176,141.094,255.75,141.579,255.451z M143.289,255.426h-0.538
		c-0.316,0-0.584,0.101-0.804,0.303s-0.33,0.458-0.33,0.768c0,0.364,0.142,0.65,0.425,0.857c0.284,0.207,0.679,0.311,1.187,0.311
		c0.426,0,0.76-0.097,1.001-0.29s0.362-0.455,0.362-0.785c0-0.35-0.124-0.631-0.372-0.844
		C143.972,255.532,143.661,255.426,143.289,255.426z"/>
	<path fill="#1D1D1B" d="M142.841,263.344v-2.954c-0.401,0.011-0.71,0.135-0.927,0.37c-0.217,0.236-0.326,0.56-0.326,0.971
		c0,0.463,0.138,0.888,0.415,1.274h-0.792c-0.249-0.395-0.373-0.917-0.373-1.566c0-0.638,0.197-1.138,0.59-1.5
		c0.394-0.363,0.947-0.544,1.661-0.544c0.674,0,1.224,0.2,1.648,0.599c0.425,0.399,0.637,0.895,0.637,1.488
		c0,0.592-0.19,1.051-0.571,1.375c-0.381,0.324-0.91,0.487-1.587,0.487H142.841z M143.534,262.396
		c0.353-0.003,0.627-0.086,0.823-0.25c0.196-0.164,0.294-0.39,0.294-0.677c0-0.282-0.103-0.521-0.309-0.717
		c-0.206-0.196-0.476-0.317-0.809-0.362V262.396z"/>
	<path fill="#1D1D1B" d="M130.539,168.604v-0.982h2.362c0.454,0,0.783-0.064,0.986-0.192s0.305-0.345,0.305-0.65
		c0-0.256-0.128-0.475-0.385-0.654c-0.257-0.179-0.564-0.269-0.923-0.269h-2.345v-0.986h2.442c0.807,0,1.21-0.285,1.21-0.855
		c0-0.265-0.121-0.483-0.364-0.654s-0.557-0.256-0.944-0.256h-2.345v-0.982h4.334v0.982h-0.686v0.017
		c0.524,0.313,0.787,0.769,0.787,1.367c0,0.299-0.083,0.561-0.248,0.785s-0.382,0.377-0.65,0.459
		c0.598,0.322,0.897,0.802,0.897,1.439c0,0.954-0.588,1.43-1.765,1.43H130.539z"/>
	<path fill="#1D1D1B" d="M130.437,171.723c0-0.668,0.203-1.203,0.607-1.602c0.405-0.399,0.941-0.599,1.61-0.599
		c0.728,0,1.296,0.208,1.706,0.624c0.409,0.417,0.614,0.977,0.614,1.683c0,0.677-0.199,1.205-0.597,1.583
		c-0.398,0.378-0.95,0.567-1.655,0.567c-0.691,0-1.245-0.204-1.662-0.612C130.645,172.959,130.437,172.411,130.437,171.723z
		 M134.191,171.769c0-0.384-0.134-0.687-0.402-0.91c-0.268-0.223-0.638-0.334-1.109-0.334c-0.455,0-0.812,0.113-1.073,0.338
		c-0.261,0.226-0.392,0.528-0.392,0.906c0,0.387,0.128,0.684,0.385,0.891c0.256,0.208,0.622,0.311,1.096,0.311
		c0.477,0,0.845-0.104,1.104-0.311C134.061,172.453,134.191,172.156,134.191,171.769z"/>
	<path fill="#1D1D1B" d="M130.539,178.918v-0.982h0.736v-0.017c-0.559-0.316-0.838-0.803-0.838-1.46c0-0.534,0.194-0.96,0.582-1.28
		c0.388-0.32,0.916-0.48,1.585-0.48c0.717,0,1.291,0.177,1.723,0.531c0.432,0.354,0.647,0.826,0.647,1.416
		c0,0.584-0.234,1.009-0.703,1.274v0.017h2.683v0.982H130.539z M132.52,177.949h0.567c0.308,0,0.568-0.101,0.783-0.301
		c0.214-0.2,0.321-0.456,0.321-0.766c0-0.367-0.137-0.655-0.41-0.865c-0.274-0.21-0.653-0.315-1.139-0.315
		c-0.44,0-0.788,0.101-1.043,0.303s-0.383,0.473-0.383,0.814c0,0.336,0.124,0.608,0.37,0.817
		C131.833,177.844,132.144,177.949,132.52,177.949z"/>
	<path fill="#1D1D1B" d="M130.539,183.98v-0.982h0.686v-0.017c-0.525-0.285-0.787-0.728-0.787-1.329
		c0-1.024,0.615-1.537,1.845-1.537h2.59v0.982h-2.489c-0.779,0-1.168,0.301-1.168,0.902c0,0.291,0.107,0.529,0.322,0.717
		c0.214,0.188,0.495,0.281,0.842,0.281h2.493v0.982H130.539z"/>
	<path fill="#1D1D1B" d="M130.674,184.987h0.91c-0.279,0.367-0.419,0.771-0.419,1.215c0,0.592,0.175,0.889,0.525,0.889
		c0.099,0,0.183-0.025,0.251-0.076c0.069-0.051,0.131-0.119,0.184-0.205c0.054-0.086,0.102-0.188,0.144-0.305
		c0.042-0.117,0.09-0.248,0.144-0.392c0.07-0.178,0.145-0.338,0.224-0.48s0.168-0.261,0.269-0.355c0.1-0.095,0.213-0.166,0.34-0.214
		s0.275-0.072,0.445-0.072c0.208,0,0.393,0.049,0.552,0.148c0.159,0.099,0.293,0.231,0.402,0.398s0.19,0.355,0.246,0.567
		c0.055,0.212,0.083,0.431,0.083,0.656c0,0.4-0.061,0.759-0.182,1.075h-0.859c0.208-0.305,0.313-0.655,0.313-1.05
		c0-0.124-0.013-0.236-0.038-0.336s-0.061-0.186-0.106-0.256c-0.045-0.07-0.099-0.125-0.163-0.165s-0.133-0.059-0.209-0.059
		c-0.093,0-0.172,0.02-0.237,0.059s-0.122,0.098-0.171,0.176s-0.095,0.171-0.135,0.279c-0.041,0.109-0.085,0.233-0.133,0.375
		c-0.076,0.187-0.154,0.354-0.233,0.501c-0.079,0.148-0.168,0.274-0.269,0.379c-0.101,0.104-0.216,0.185-0.347,0.241
		c-0.131,0.057-0.287,0.085-0.468,0.085c-0.22,0-0.412-0.051-0.576-0.152s-0.299-0.237-0.406-0.407
		c-0.107-0.169-0.187-0.364-0.239-0.586s-0.078-0.455-0.078-0.701C130.437,185.745,130.516,185.334,130.674,184.987z"/>
	<path fill="#1D1D1B" d="M134.873,197.206l-4.334-1.278v-1.029l2.937-0.787c0.113-0.031,0.24-0.051,0.381-0.059v-0.017
		c-0.096-0.005-0.22-0.031-0.373-0.076l-2.946-0.855v-1.007l4.334-1.274v1.016l-3.124,0.787c-0.093,0.025-0.217,0.042-0.373,0.051
		v0.03c0.119,0.008,0.246,0.031,0.381,0.067l3.115,0.876v0.923l-3.136,0.779c-0.099,0.025-0.223,0.043-0.373,0.055v0.029
		c0.104,0.006,0.229,0.027,0.373,0.063l3.136,0.771V197.206z"/>
	<path fill="#1D1D1B" d="M130.437,199.822c0-0.668,0.203-1.203,0.607-1.602c0.405-0.399,0.941-0.599,1.61-0.599
		c0.728,0,1.296,0.208,1.706,0.624c0.409,0.417,0.614,0.977,0.614,1.683c0,0.677-0.199,1.205-0.597,1.583
		c-0.398,0.378-0.95,0.567-1.655,0.567c-0.691,0-1.245-0.204-1.662-0.612C130.645,201.058,130.437,200.51,130.437,199.822z
		 M134.191,199.868c0-0.384-0.134-0.687-0.402-0.91c-0.268-0.223-0.638-0.334-1.109-0.334c-0.455,0-0.812,0.113-1.073,0.338
		c-0.261,0.226-0.392,0.528-0.392,0.906c0,0.387,0.128,0.684,0.385,0.891c0.256,0.208,0.622,0.311,1.096,0.311
		c0.477,0,0.845-0.104,1.104-0.311C134.061,200.552,134.191,200.255,134.191,199.868z"/>
	<path fill="#1D1D1B" d="M133.937,205.591c0.093-0.119,0.14-0.29,0.14-0.512c0-0.291-0.131-0.533-0.394-0.728
		c-0.262-0.195-0.619-0.292-1.071-0.292h-2.074v-0.982h4.334v0.982h-0.893v0.017c0.305,0.096,0.542,0.244,0.713,0.442
		c0.171,0.199,0.256,0.421,0.256,0.667c0,0.178-0.027,0.313-0.081,0.407H133.937z"/>
	<path fill="#1D1D1B" d="M130.539,210.149v-0.982h0.736v-0.017c-0.559-0.316-0.838-0.803-0.838-1.46c0-0.534,0.194-0.96,0.582-1.28
		c0.388-0.32,0.916-0.48,1.585-0.48c0.717,0,1.291,0.177,1.723,0.531c0.432,0.354,0.647,0.826,0.647,1.416
		c0,0.584-0.234,1.009-0.703,1.274v0.017h2.683v0.982H130.539z M132.52,209.179h0.567c0.308,0,0.568-0.101,0.783-0.301
		c0.214-0.2,0.321-0.456,0.321-0.766c0-0.367-0.137-0.655-0.41-0.865c-0.274-0.21-0.653-0.315-1.139-0.315
		c-0.44,0-0.788,0.101-1.043,0.303s-0.383,0.473-0.383,0.814c0,0.336,0.124,0.608,0.37,0.817
		C131.833,209.075,132.144,209.179,132.52,209.179z"/>
	<path fill="#1D1D1B" d="M132.439,215.1v-2.954c-0.401,0.011-0.71,0.135-0.927,0.37c-0.217,0.236-0.326,0.56-0.326,0.971
		c0,0.463,0.138,0.888,0.415,1.274h-0.792c-0.249-0.395-0.373-0.917-0.373-1.566c0-0.638,0.197-1.138,0.59-1.5
		c0.394-0.363,0.947-0.544,1.661-0.544c0.674,0,1.224,0.2,1.648,0.599c0.425,0.399,0.637,0.895,0.637,1.488
		c0,0.592-0.19,1.051-0.571,1.375c-0.381,0.324-0.91,0.487-1.587,0.487H132.439z M133.133,214.152
		c0.353-0.003,0.627-0.086,0.823-0.25c0.196-0.164,0.294-0.39,0.294-0.677c0-0.282-0.103-0.521-0.309-0.717
		c-0.206-0.196-0.476-0.317-0.809-0.362V214.152z"/>
	<path fill="#1D1D1B" d="M130.539,219.895v-0.982h2.442c0.81,0,1.215-0.287,1.215-0.859c0-0.299-0.112-0.546-0.336-0.74
		c-0.225-0.195-0.507-0.292-0.849-0.292h-2.472v-0.986h4.334v0.986h-0.72v0.017c0.547,0.325,0.821,0.793,0.821,1.405
		c0,0.471-0.153,0.831-0.459,1.079c-0.306,0.249-0.748,0.373-1.327,0.373H130.539z"/>
	<path fill="#1D1D1B" d="M130.539,226.802v-0.953h0.677v-0.017c-0.519-0.299-0.779-0.738-0.779-1.316
		c0-0.426,0.116-0.76,0.347-1.001c0.231-0.241,0.538-0.362,0.918-0.362c0.818,0,1.295,0.471,1.43,1.414l0.182,1.287
		c0.618,0,0.927-0.293,0.927-0.88c0-0.516-0.178-0.982-0.533-1.396h0.859c0.271,0.457,0.406,0.984,0.406,1.583
		c0,1.095-0.539,1.642-1.617,1.642H130.539z M132.668,225.854l-0.127-0.91c-0.037-0.282-0.105-0.495-0.206-0.637
		c-0.1-0.143-0.275-0.214-0.527-0.214c-0.183,0-0.333,0.066-0.451,0.197c-0.117,0.131-0.175,0.307-0.175,0.527
		c0,0.299,0.105,0.546,0.315,0.743c0.21,0.196,0.475,0.294,0.793,0.294H132.668z"/>
	<path fill="#1D1D1B" d="M130.539,231.327v-0.953h0.677v-0.017c-0.519-0.299-0.779-0.738-0.779-1.316
		c0-0.426,0.116-0.76,0.347-1.001c0.231-0.241,0.538-0.362,0.918-0.362c0.818,0,1.295,0.471,1.43,1.414l0.182,1.287
		c0.618,0,0.927-0.293,0.927-0.88c0-0.516-0.178-0.982-0.533-1.396h0.859c0.271,0.457,0.406,0.984,0.406,1.583
		c0,1.095-0.539,1.642-1.617,1.642H130.539z M132.668,230.379l-0.127-0.91c-0.037-0.282-0.105-0.495-0.206-0.637
		c-0.1-0.143-0.275-0.214-0.527-0.214c-0.183,0-0.333,0.066-0.451,0.197c-0.117,0.131-0.175,0.307-0.175,0.527
		c0,0.299,0.105,0.546,0.315,0.743c0.21,0.196,0.475,0.294,0.793,0.294H132.668z"/>
	<path fill="#1D1D1B" d="M130.539,236.385v-0.982h2.442c0.81,0,1.215-0.287,1.215-0.859c0-0.299-0.112-0.546-0.336-0.74
		c-0.225-0.195-0.507-0.292-0.849-0.292h-2.472v-0.986h4.334v0.986h-0.72v0.017c0.547,0.325,0.821,0.793,0.821,1.405
		c0,0.471-0.153,0.831-0.459,1.079c-0.306,0.249-0.748,0.373-1.327,0.373H130.539z"/>
	<path fill="#1D1D1B" d="M130.886,243.909c-1.591,0-2.387-0.8-2.387-2.399c0-0.564,0.095-1.057,0.284-1.477h0.897
		c-0.271,0.474-0.406,0.924-0.406,1.35c0,1.03,0.507,1.544,1.52,1.544h0.474v-0.017c-0.553-0.325-0.83-0.813-0.83-1.464
		c0-0.528,0.192-0.953,0.578-1.276s0.902-0.484,1.551-0.484c0.736,0,1.322,0.173,1.756,0.521s0.652,0.824,0.652,1.431
		c0,0.573-0.234,0.997-0.703,1.274v0.017h0.601v0.982H130.886z M132.524,242.936h0.563c0.305,0,0.565-0.101,0.781-0.303
		s0.324-0.454,0.324-0.755c0-0.373-0.137-0.664-0.413-0.874c-0.275-0.21-0.66-0.315-1.153-0.315c-0.426,0-0.767,0.101-1.022,0.303
		s-0.383,0.469-0.383,0.802c0,0.339,0.122,0.614,0.366,0.826C131.83,242.83,132.143,242.936,132.524,242.936z"/>
	<path fill="#1D1D1B" d="M132.439,248.857v-2.954c-0.401,0.011-0.71,0.135-0.927,0.37c-0.217,0.236-0.326,0.56-0.326,0.971
		c0,0.463,0.138,0.888,0.415,1.274h-0.792c-0.249-0.395-0.373-0.917-0.373-1.566c0-0.638,0.197-1.138,0.59-1.5
		c0.394-0.363,0.947-0.544,1.661-0.544c0.674,0,1.224,0.2,1.648,0.599c0.425,0.399,0.637,0.895,0.637,1.488
		c0,0.592-0.19,1.051-0.571,1.375c-0.381,0.324-0.91,0.487-1.587,0.487H132.439z M133.133,247.909
		c0.353-0.003,0.627-0.086,0.823-0.25c0.196-0.164,0.294-0.39,0.294-0.677c0-0.282-0.103-0.521-0.309-0.717
		c-0.206-0.196-0.476-0.317-0.809-0.362V247.909z"/>
	<path fill="#1D1D1B" d="M134.462,252.992l-3.157-2.341v2.332h-0.766v-3.708h0.368l3.2,2.392v-2.163h0.766v3.488H134.462z"/>
	<path fill="#1D1D1B" d="M132.439,257.487v-2.954c-0.401,0.011-0.71,0.135-0.927,0.37c-0.217,0.236-0.326,0.56-0.326,0.971
		c0,0.463,0.138,0.888,0.415,1.274h-0.792c-0.249-0.395-0.373-0.917-0.373-1.566c0-0.638,0.197-1.138,0.59-1.5
		c0.394-0.363,0.947-0.544,1.661-0.544c0.674,0,1.224,0.2,1.648,0.599c0.425,0.399,0.637,0.895,0.637,1.488
		c0,0.592-0.19,1.051-0.571,1.375c-0.381,0.324-0.91,0.487-1.587,0.487H132.439z M133.133,256.539
		c0.353-0.003,0.627-0.086,0.823-0.25c0.196-0.164,0.294-0.39,0.294-0.677c0-0.282-0.103-0.521-0.309-0.717
		c-0.206-0.196-0.476-0.317-0.809-0.362V256.539z"/>
	<path fill="#1D1D1B" d="M130.585,260.707c-0.096-0.192-0.144-0.444-0.144-0.757c0-0.841,0.403-1.261,1.21-1.261h2.45v-0.724h0.771
		v0.724h1.003l0.279,0.982h-1.282v1.037h-0.771v-1.037h-2.167c-0.257,0-0.44,0.046-0.55,0.14c-0.11,0.093-0.165,0.248-0.165,0.465
		c0,0.167,0.048,0.311,0.144,0.432H130.585z"/>
	<path fill="#1D1D1B" d="M130.446,261.96c0-0.169,0.056-0.313,0.167-0.432c0.111-0.119,0.245-0.178,0.4-0.178
		c0.158,0,0.293,0.059,0.406,0.178s0.169,0.262,0.169,0.432c0,0.172-0.057,0.318-0.169,0.438s-0.249,0.18-0.406,0.18
		c-0.155,0-0.289-0.06-0.4-0.18C130.501,262.278,130.446,262.132,130.446,261.96z"/>
	<path fill="#1D1D1B" d="M129.159,263.924v-0.83c1.056,0.875,2.29,1.312,3.704,1.312c1.425,0,2.673-0.439,3.746-1.316v0.838
		c-1.033,0.894-2.284,1.341-3.754,1.341C131.389,265.27,130.158,264.821,129.159,263.924z"/>
</g>
</svg>
